<svg width="636" height="385" viewBox="0 0 636 385" fill="none" xmlns="http://www.w3.org/2000/svg">
<g clip-path="url(#clip0_718_4988)">
<rect x="-0.125" y="68.8242" width="339" height="339.001" rx="20" transform="rotate(-9.59242 -0.125 68.8242)" fill="black"/>
<g filter="url(#filter0_d_718_4988)">
<rect x="359.59" y="108.051" width="277.025" height="277.026" rx="20" transform="rotate(3.00768 359.59 108.051)" fill="white"/>
</g>
<rect x="34.0273" y="92.9102" width="4" height="34.8873" rx="2" transform="rotate(-9.12 34.0273 92.9102)" fill="#636363"/>
<rect x="53.7695" y="89.7188" width="4" height="34.8873" rx="2" transform="rotate(-9.12 53.7695 89.7188)" fill="#636363"/>
<rect x="73.5117" y="86.5312" width="4" height="34.8873" rx="2" transform="rotate(-9.12 73.5117 86.5312)" fill="#636363"/>
<rect x="93.2539" y="83.3359" width="4" height="34.8873" rx="2" transform="rotate(-9.12 93.2539 83.3359)" fill="#636363"/>
<rect x="113.004" y="80.1484" width="4" height="34.8873" rx="2" transform="rotate(-9.12 113.004 80.1484)" fill="#636363"/>
<rect x="132.746" y="76.957" width="4" height="34.8873" rx="2" transform="rotate(-9.12 132.746 76.957)" fill="#636363"/>
<rect x="152.488" y="73.7656" width="4" height="34.8873" rx="2" transform="rotate(-9.12 152.488 73.7656)" fill="#636363"/>
<rect x="172.23" y="70.5742" width="4" height="34.8873" rx="2" transform="rotate(-9.12 172.23 70.5742)" fill="#636363"/>
<rect x="191.977" y="67.3828" width="4" height="34.8873" rx="2" transform="rotate(-9.12 191.977 67.3828)" fill="#636363"/>
<rect x="211.719" y="64.1914" width="4" height="34.8873" rx="2" transform="rotate(-9.12 211.719 64.1914)" fill="#636363"/>
<rect x="231.465" y="61" width="4" height="34.8873" rx="2" transform="rotate(-9.12 231.465 61)" fill="#DEFE94"/>
<rect x="251.207" y="57.8125" width="4" height="34.8873" rx="2" transform="rotate(-9.12 251.207 57.8125)" fill="#DEFE94"/>
<rect x="270.953" y="54.6172" width="4" height="34.8873" rx="2" transform="rotate(-9.12 270.953 54.6172)" fill="#DEFE94"/>
<rect x="290.695" y="51.4297" width="4" height="34.8873" rx="2" transform="rotate(-9.12 290.695 51.4297)" fill="#DEFE94"/>
<rect x="310.438" y="48.2383" width="4" height="34.8873" rx="2" transform="rotate(-9.12 310.438 48.2383)" fill="#DEFE94"/>
<g clip-path="url(#clip1_718_4988)">
<path d="M86.7239 203.918C89.4072 200.909 91.3326 198.193 92.5001 195.768C93.7236 193.334 94.1316 190.829 93.7241 188.251C93.2014 184.945 91.7852 182.527 89.4755 180.997C87.1659 179.466 84.2739 178.976 80.7996 179.525C77.4375 180.057 74.8924 181.579 73.1646 184.092C71.4839 186.541 70.9271 189.558 71.4941 193.144L71.6669 194.237L62.3368 195.712L62.0843 194.115C61.4996 190.417 61.8174 186.978 63.0379 183.798C64.3143 180.609 66.3606 177.931 69.1769 175.763C71.9931 173.594 75.4465 172.187 79.5372 171.54C86.0935 170.503 91.4541 171.35 95.6192 174.081C99.7754 176.755 102.288 180.838 103.156 186.329C103.785 190.308 103.302 193.974 101.707 197.328C100.103 200.626 97.5025 204.339 93.9051 208.469L80.3307 223.969L108.741 219.478L110.03 227.631L68.339 234.222L67.1563 226.741L86.7239 203.918ZM134.548 183.089C138.247 182.505 141.686 182.823 144.865 184.043C148.101 185.254 150.799 187.24 152.958 190.001C155.118 192.761 156.503 196.074 157.114 199.941C157.787 204.199 157.411 207.992 155.984 211.32C154.557 214.647 152.343 217.352 149.341 219.435C146.338 221.517 142.876 222.869 138.954 223.489C134.639 224.171 130.723 223.929 127.208 222.761C123.748 221.585 120.895 219.71 118.65 217.136C116.396 214.505 114.878 211.443 114.096 207.948L123.342 206.486C124.183 209.627 125.921 212.081 128.555 213.847C131.189 215.613 134.244 216.221 137.718 215.672C139.791 215.344 141.649 214.562 143.292 213.326C144.99 212.081 146.254 210.445 147.082 208.419C147.91 206.393 148.116 204.063 147.7 201.429C147.133 197.843 145.575 195.073 143.027 193.121C140.534 191.161 137.495 190.464 133.908 191.031C131.555 191.403 129.313 192.303 127.184 193.731C125.055 195.159 123.727 197.293 123.199 200.133L114.179 201.387L110.589 167.234L147.236 161.44L148.525 169.593L120.451 174.032L121.95 190.595C123.339 188.48 125.143 186.816 127.364 185.604C129.576 184.335 131.97 183.497 134.548 183.089ZM161.881 200.454C161.702 199.323 161.807 198.266 162.195 197.282C162.584 196.299 163.211 195.478 164.077 194.821C164.943 194.164 165.964 193.742 167.141 193.556C168.317 193.37 169.419 193.456 170.445 193.814C171.471 194.172 172.321 194.759 172.994 195.575C173.667 196.391 174.093 197.364 174.272 198.495C174.45 199.626 174.345 200.683 173.957 201.667C173.565 202.627 172.936 203.436 172.07 204.093C171.205 204.751 170.183 205.172 169.006 205.358C167.83 205.544 166.728 205.458 165.702 205.1C164.676 204.742 163.828 204.167 163.159 203.374C162.486 202.558 162.06 201.585 161.881 200.454ZM168.823 218.336L181.537 191.493L185.24 190.907L172.492 217.756L168.823 218.336ZM171.122 198.993C170.983 198.116 170.58 197.435 169.912 196.949C169.24 196.441 168.466 196.256 167.589 196.394C166.736 196.529 166.068 196.942 165.586 197.633C165.1 198.301 164.927 199.074 165.065 199.951C165.204 200.827 165.609 201.52 166.281 202.029C166.949 202.515 167.71 202.69 168.563 202.555C169.44 202.416 170.121 202.013 170.607 201.345C171.089 200.654 171.261 199.87 171.122 198.993ZM179.728 210.794C179.549 209.663 179.654 208.606 180.043 207.622C180.431 206.639 181.058 205.818 181.924 205.161C182.79 204.504 183.811 204.082 184.988 203.896C186.165 203.71 187.266 203.796 188.292 204.154C189.319 204.512 190.168 205.099 190.841 205.915C191.514 206.731 191.94 207.704 192.119 208.835C192.294 209.943 192.187 210.988 191.799 211.972C191.41 212.956 190.783 213.776 189.917 214.433C189.052 215.091 188.03 215.512 186.854 215.698C185.677 215.884 184.575 215.798 183.549 215.44C182.523 215.082 181.673 214.495 181 213.679C180.327 212.863 179.903 211.901 179.728 210.794ZM188.935 209.338C188.796 208.462 188.391 207.769 187.719 207.26C187.047 206.751 186.285 206.565 185.431 206.699C184.577 206.834 183.898 207.249 183.393 207.944C182.911 208.635 182.739 209.419 182.878 210.296C183.016 211.173 183.42 211.854 184.088 212.34C184.756 212.825 185.528 212.999 186.405 212.86C187.282 212.722 187.951 212.32 188.414 211.656C188.9 210.988 189.073 210.215 188.935 209.338Z" fill="white"/>
</g>
<g clip-path="url(#clip2_718_4988)">
<path d="M105.4 289.641C108.083 286.632 110.008 283.915 111.176 281.491C112.399 279.057 112.807 276.552 112.4 273.974C111.877 270.668 110.461 268.25 108.151 266.719C105.842 265.189 102.95 264.698 99.4754 265.248C96.1132 265.779 93.5682 267.302 91.8404 269.815C90.1597 272.263 89.6029 275.281 90.1699 278.867L90.3426 279.96L81.0126 281.435L80.7601 279.838C80.1754 276.139 80.4932 272.7 81.7136 269.52C82.9901 266.332 85.0364 263.654 87.8526 261.485C90.6689 259.317 94.1223 257.909 98.213 257.263C104.769 256.226 110.13 257.073 114.295 259.803C118.451 262.477 120.963 266.56 121.832 272.052C122.461 276.031 121.978 279.697 120.383 283.05C118.779 286.348 116.178 290.062 112.581 294.192L99.0064 309.692L127.417 305.2L128.706 313.354L87.0148 319.945L85.8321 312.464L105.4 289.641ZM130.677 281.509C129.791 275.905 129.96 270.796 131.183 266.18C132.453 261.499 134.667 257.702 137.825 254.791C140.975 251.823 144.819 249.98 149.358 249.263C153.841 248.554 158.01 249.13 161.865 250.99C165.767 252.786 169.045 255.714 171.697 259.774C174.34 263.779 176.105 268.583 176.991 274.187L177.416 276.877C178.338 282.705 178.159 287.931 176.88 292.556C175.657 297.172 173.462 300.908 170.294 303.763C167.183 306.61 163.358 308.392 158.819 309.11C154.224 309.836 149.98 309.33 146.087 307.59C142.249 305.842 139.009 302.966 136.365 298.961C133.778 294.947 132.024 290.027 131.102 284.199L130.677 281.509ZM167.714 275.998C166.686 269.498 164.624 264.626 161.526 261.382C158.476 258.074 154.85 256.752 150.647 257.416C146.444 258.081 143.374 260.461 141.437 264.558C139.492 268.599 139.032 273.87 140.06 280.37L140.379 282.388C141.407 288.888 143.474 293.788 146.58 297.088C149.678 300.331 153.328 301.621 157.53 300.956C161.733 300.292 164.779 297.944 166.669 293.912C168.606 289.814 169.061 284.516 168.033 278.016L167.714 275.998ZM184.168 285.606C183.99 284.475 184.095 283.418 184.483 282.434C184.871 281.45 185.498 280.63 186.364 279.973C187.23 279.315 188.251 278.894 189.428 278.708C190.605 278.522 191.706 278.608 192.733 278.966C193.759 279.324 194.609 279.911 195.282 280.727C195.954 281.543 196.38 282.516 196.559 283.647C196.738 284.777 196.633 285.835 196.245 286.818C195.852 287.779 195.224 288.588 194.358 289.245C193.492 289.902 192.471 290.324 191.294 290.51C190.117 290.696 189.016 290.61 187.989 290.252C186.963 289.894 186.115 289.318 185.446 288.526C184.773 287.71 184.347 286.736 184.168 285.606ZM191.111 303.488L203.824 276.645L207.528 276.059L194.779 302.908L191.111 303.488ZM193.41 284.145C193.271 283.268 192.868 282.587 192.2 282.101C191.528 281.592 190.754 281.407 189.877 281.546C189.023 281.681 188.355 282.094 187.873 282.785C187.388 283.453 187.214 284.225 187.353 285.102C187.491 285.979 187.896 286.672 188.568 287.181C189.236 287.666 189.997 287.841 190.851 287.707C191.728 287.568 192.409 287.165 192.894 286.497C193.376 285.805 193.548 285.021 193.41 284.145ZM202.016 295.946C201.837 294.815 201.942 293.758 202.33 292.774C202.719 291.79 203.346 290.97 204.211 290.313C205.077 289.655 206.098 289.234 207.275 289.048C208.452 288.862 209.554 288.948 210.58 289.306C211.606 289.664 212.456 290.251 213.129 291.067C213.802 291.883 214.228 292.856 214.406 293.987C214.581 295.094 214.475 296.14 214.086 297.124C213.698 298.107 213.071 298.928 212.205 299.585C211.339 300.242 210.318 300.664 209.141 300.85C207.964 301.036 206.863 300.95 205.837 300.592C204.81 300.234 203.961 299.647 203.288 298.831C202.615 298.015 202.191 297.053 202.016 295.946ZM211.222 294.49C211.083 293.613 210.678 292.92 210.007 292.412C209.335 291.903 208.572 291.716 207.718 291.851C206.865 291.986 206.185 292.401 205.68 293.096C205.198 293.787 205.027 294.571 205.165 295.448C205.304 296.324 205.707 297.006 206.375 297.491C207.043 297.977 207.816 298.15 208.692 298.012C209.569 297.873 210.239 297.472 210.702 296.807C211.187 296.139 211.361 295.367 211.222 294.49Z" fill="white"/>
</g>
<path d="M220.183 167.509L221.326 174.727C221.512 175.9 221.883 176.747 222.439 177.266C222.993 177.773 223.756 177.95 224.728 177.796C225.712 177.641 226.389 177.236 226.759 176.582C227.139 175.914 227.236 174.993 227.05 173.82L225.907 166.602L227.952 166.278L229.078 173.39C229.36 175.167 229.153 176.585 228.458 177.643C227.775 178.699 226.627 179.354 225.015 179.61C223.415 179.863 222.127 179.593 221.151 178.8C220.175 178.007 219.546 176.722 219.264 174.944L218.138 167.833L220.183 167.509ZM232.983 175.159C233.093 175.627 233.374 175.983 233.826 176.228C234.288 176.458 234.845 176.522 235.497 176.419C236.077 176.327 236.529 176.146 236.85 175.876C237.182 175.593 237.319 175.268 237.261 174.9C237.212 174.592 237.092 174.374 236.902 174.246C236.712 174.118 236.47 174.047 236.176 174.033C235.892 174.005 235.454 174.002 234.862 174.023C234.053 174.053 233.375 174.033 232.829 173.962C232.294 173.877 231.838 173.687 231.464 173.394C231.099 173.088 230.87 172.638 230.776 172.045C230.688 171.488 230.764 170.972 231.005 170.497C231.255 170.007 231.635 169.601 232.142 169.278C232.662 168.952 233.271 168.734 233.97 168.624C235.12 168.441 236.091 168.549 236.883 168.946C237.686 169.341 238.191 169.996 238.397 170.911L236.53 171.207C236.417 170.8 236.156 170.495 235.747 170.292C235.337 170.078 234.853 170.015 234.296 170.103C233.739 170.191 233.305 170.369 232.995 170.637C232.685 170.905 232.56 171.222 232.618 171.59C232.661 171.862 232.777 172.057 232.965 172.172C233.164 172.275 233.398 172.335 233.668 172.353C233.936 172.359 234.366 172.351 234.959 172.331C235.754 172.29 236.432 172.316 236.994 172.409C237.553 172.491 238.023 172.696 238.403 173.024C238.782 173.341 239.021 173.819 239.123 174.459C239.213 175.028 239.127 175.558 238.864 176.049C238.6 176.529 238.196 176.933 237.653 177.262C237.108 177.579 236.474 177.795 235.751 177.909C234.53 178.103 233.497 177.987 232.652 177.562C231.818 177.123 231.311 176.42 231.134 175.451L232.983 175.159ZM240.058 172.471C239.91 171.534 239.964 170.687 240.221 169.93C240.487 169.159 240.922 168.531 241.526 168.046C242.14 167.548 242.879 167.231 243.744 167.094C244.621 166.955 245.42 167.011 246.14 167.261C246.872 167.51 247.479 167.93 247.962 168.522C248.456 169.112 248.778 169.844 248.929 170.719C248.967 170.956 248.988 171.202 248.991 171.457L242.129 172.544L242.146 172.65C242.319 173.437 242.667 174.026 243.191 174.416C243.715 174.807 244.35 174.944 245.096 174.825C245.689 174.732 246.165 174.516 246.525 174.18C246.883 173.832 247.087 173.392 247.136 172.862L249.056 172.558C249.037 173.509 248.707 174.339 248.066 175.048C247.437 175.755 246.577 176.195 245.486 176.367C244.538 176.518 243.679 176.459 242.907 176.193C242.146 175.912 241.515 175.453 241.013 174.816C240.523 174.177 240.204 173.395 240.058 172.471ZM246.867 170.353C246.679 169.703 246.33 169.23 245.822 168.933C245.323 168.624 244.736 168.522 244.06 168.629C243.432 168.729 242.918 169.011 242.518 169.475C242.127 169.926 241.947 170.476 241.978 171.128L246.867 170.353ZM254.843 165.445L255.127 167.241L254.274 167.376C253.48 167.502 252.946 167.854 252.673 168.431C252.398 168.997 252.324 169.677 252.449 170.472L253.173 175.041L251.253 175.345L249.811 166.242L251.518 165.972L251.948 167.307C252.141 166.839 252.427 166.454 252.804 166.151C253.179 165.836 253.717 165.624 254.416 165.513L254.843 165.445ZM226.558 188.773C227.423 188.636 228.208 188.682 228.912 188.911C229.615 189.127 230.191 189.51 230.643 190.058C231.104 190.592 231.398 191.257 231.523 192.051C231.655 192.88 231.551 193.644 231.212 194.342C230.873 195.039 230.357 195.577 229.663 195.954L233.08 200.497L230.804 200.858L227.724 196.716L224.951 197.156L225.666 201.671L223.622 201.995L221.651 189.55L226.558 188.773ZM224.669 195.378L227.372 194.95C228.107 194.834 228.656 194.546 229.021 194.087C229.396 193.615 229.531 193.047 229.426 192.383C229.32 191.719 229.018 191.227 228.517 190.905C228.027 190.57 227.414 190.46 226.679 190.576L223.977 191.004L224.669 195.378ZM233.048 195.855C232.9 194.919 232.954 194.072 233.21 193.314C233.477 192.543 233.912 191.915 234.516 191.431C235.129 190.933 235.869 190.615 236.734 190.478C237.611 190.339 238.41 190.395 239.13 190.646C239.862 190.894 240.469 191.314 240.951 191.906C241.446 192.496 241.768 193.229 241.919 194.104C241.957 194.341 241.977 194.587 241.981 194.841L235.119 195.928L235.136 196.035C235.309 196.821 235.657 197.41 236.181 197.801C236.704 198.192 237.34 198.328 238.086 198.21C238.679 198.116 239.155 197.901 239.515 197.565C239.873 197.216 240.077 196.777 240.126 196.247L242.046 195.943C242.027 196.893 241.697 197.723 241.056 198.432C240.426 199.139 239.567 199.579 238.476 199.752C237.528 199.902 236.668 199.844 235.897 199.577C235.136 199.297 234.504 198.838 234.002 198.201C233.512 197.561 233.194 196.78 233.048 195.855ZM239.856 193.738C239.668 193.087 239.32 192.614 238.811 192.318C238.313 192.008 237.726 191.907 237.05 192.014C236.422 192.113 235.908 192.395 235.507 192.859C235.117 193.31 234.937 193.861 234.967 194.512L239.856 193.738ZM243.586 191.234L242.004 191.484L241.736 189.795L243.318 189.545L242.916 187.002L244.854 186.696L245.256 189.238L247.443 188.891L247.711 190.58L245.524 190.927L246.276 195.674C246.332 196.029 246.443 196.273 246.61 196.404C246.775 196.524 247.029 196.557 247.373 196.502L248.831 196.271L249.098 197.96L247.249 198.253C246.384 198.39 245.718 198.289 245.251 197.95C244.796 197.609 244.502 197.018 244.369 196.176L243.586 191.234ZM248.882 193.347C248.733 192.411 248.788 191.564 249.044 190.807C249.311 190.035 249.746 189.408 250.35 188.923C250.963 188.425 251.703 188.107 252.568 187.97C253.445 187.832 254.244 187.887 254.964 188.138C255.696 188.386 256.303 188.806 256.785 189.398C257.28 189.988 257.602 190.721 257.753 191.596C257.79 191.833 257.811 192.079 257.815 192.333L250.953 193.42L250.97 193.527C251.143 194.313 251.491 194.902 252.015 195.293C252.538 195.684 253.173 195.82 253.92 195.702C254.513 195.608 254.989 195.393 255.349 195.057C255.707 194.708 255.91 194.269 255.96 193.739L257.88 193.435C257.861 194.385 257.53 195.215 256.889 195.924C256.26 196.631 255.401 197.071 254.31 197.244C253.362 197.394 252.502 197.336 251.731 197.069C250.97 196.789 250.338 196.33 249.836 195.693C249.346 195.054 249.028 194.272 248.882 193.347ZM255.69 191.23C255.502 190.58 255.154 190.106 254.645 189.81C254.147 189.5 253.56 189.399 252.884 189.506C252.256 189.605 251.742 189.887 251.341 190.352C250.951 190.802 250.771 191.353 250.801 192.004L255.69 191.23ZM263.418 186.252C264.497 186.081 265.427 186.274 266.207 186.831C267 187.386 267.512 188.398 267.745 189.868L268.539 194.881L266.601 195.188L265.824 190.281C265.687 189.416 265.399 188.787 264.961 188.395C264.522 188.003 263.947 187.863 263.236 187.976C262.477 188.096 261.921 188.457 261.567 189.06C261.223 189.649 261.124 190.406 261.27 191.33L261.997 195.917L260.077 196.221L258.635 187.119L260.306 186.854L260.708 188.012C261.259 187.037 262.162 186.451 263.418 186.252ZM269.698 187.098L268.116 187.349L267.848 185.66L269.43 185.409L269.028 182.867L270.966 182.56L271.368 185.102L273.555 184.756L273.823 186.445L271.636 186.791L272.388 191.538C272.444 191.893 272.555 192.137 272.722 192.269C272.887 192.388 273.141 192.421 273.485 192.366L274.943 192.136L275.21 193.825L273.361 194.117C272.496 194.254 271.83 194.153 271.363 193.814C270.908 193.473 270.614 192.882 270.481 192.04L269.698 187.098ZM275.182 180.762C275.513 180.71 275.81 180.778 276.071 180.968C276.33 181.145 276.485 181.4 276.538 181.732C276.591 182.064 276.522 182.36 276.333 182.621C276.141 182.87 275.88 183.021 275.548 183.073C275.216 183.126 274.92 183.063 274.661 182.886C274.401 182.696 274.244 182.435 274.191 182.104C274.139 181.772 274.208 181.481 274.4 181.232C274.589 180.971 274.85 180.815 275.182 180.762ZM274.799 184.559L276.719 184.255L278.161 193.357L276.241 193.661L274.799 184.559ZM284.362 192.484C283.449 192.629 282.607 192.568 281.836 192.301C281.075 192.021 280.443 191.562 279.942 190.925C279.45 190.274 279.131 189.486 278.984 188.561C278.84 187.649 278.902 186.813 279.17 186.053C279.449 185.28 279.906 184.643 280.544 184.141C281.193 183.637 281.974 183.313 282.887 183.168C283.799 183.024 284.636 183.092 285.397 183.372C286.17 183.651 286.803 184.115 287.295 184.767C287.797 185.404 288.12 186.179 288.264 187.091C288.411 188.016 288.345 188.865 288.066 189.638C287.798 190.397 287.339 191.029 286.69 191.532C286.051 192.022 285.275 192.34 284.362 192.484ZM284.103 190.849C284.909 190.721 285.511 190.34 285.908 189.706C286.316 189.058 286.45 188.29 286.309 187.401C286.168 186.512 285.805 185.829 285.219 185.351C284.643 184.859 283.952 184.676 283.146 184.804C282.34 184.932 281.739 185.318 281.343 185.964C280.945 186.598 280.817 187.36 280.957 188.249C281.098 189.138 281.457 189.828 282.033 190.32C282.607 190.8 283.297 190.976 284.103 190.849ZM293.871 181.429C294.949 181.258 295.879 181.451 296.66 182.008C297.452 182.562 297.965 183.575 298.198 185.044L298.992 190.058L297.054 190.365L296.277 185.458C296.14 184.593 295.852 183.964 295.413 183.572C294.974 183.18 294.399 183.04 293.688 183.152C292.93 183.273 292.373 183.634 292.019 184.237C291.675 184.826 291.576 185.583 291.723 186.507L292.449 191.094L290.529 191.398L289.087 182.296L290.759 182.031L291.161 183.188C291.711 182.214 292.614 181.628 293.871 181.429Z" fill="white"/>
<path d="M237.426 260.085C237.227 258.828 237.295 257.687 237.631 256.662C237.976 255.623 238.558 254.772 239.377 254.108C240.205 253.43 241.223 252.995 242.432 252.804C243.369 252.655 244.238 252.7 245.041 252.937C245.856 253.173 246.553 253.585 247.132 254.173C247.71 254.75 248.132 255.461 248.399 256.305L246.355 256.629C246.028 255.867 245.538 255.307 244.886 254.948C244.234 254.59 243.481 254.478 242.628 254.613C241.857 254.735 241.213 255.038 240.694 255.521C240.173 255.992 239.813 256.596 239.614 257.332C239.413 258.057 239.383 258.863 239.523 259.752C239.662 260.629 239.94 261.387 240.357 262.026C240.774 262.664 241.304 263.133 241.947 263.432C242.588 263.72 243.293 263.802 244.064 263.68C244.917 263.545 245.593 263.207 246.09 262.667C246.6 262.125 246.892 261.44 246.968 260.614L249.012 260.291C249.021 261.188 248.84 262.001 248.469 262.728C248.11 263.453 247.585 264.052 246.895 264.526C246.205 265 245.385 265.312 244.437 265.462C243.228 265.653 242.126 265.561 241.131 265.184C240.148 264.805 239.332 264.181 238.684 263.311C238.046 262.428 237.626 261.353 237.426 260.085ZM255.567 263.699C254.655 263.844 253.813 263.783 253.042 263.516C252.28 263.236 251.649 262.777 251.147 262.139C250.655 261.488 250.336 260.701 250.189 259.776C250.045 258.863 250.107 258.027 250.375 257.268C250.654 256.495 251.112 255.858 251.749 255.356C252.398 254.852 253.179 254.528 254.092 254.383C255.004 254.239 255.841 254.307 256.603 254.587C257.376 254.865 258.008 255.33 258.5 255.981C259.002 256.619 259.325 257.394 259.47 258.306C259.616 259.231 259.55 260.079 259.272 260.853C259.003 261.612 258.544 262.243 257.895 262.747C257.256 263.237 256.48 263.555 255.567 263.699ZM255.308 262.063C256.114 261.936 256.716 261.555 257.114 260.921C257.521 260.273 257.655 259.505 257.514 258.616C257.373 257.727 257.01 257.043 256.424 256.565C255.848 256.073 255.157 255.891 254.351 256.019C253.545 256.146 252.944 256.533 252.548 257.179C252.151 257.813 252.022 258.575 252.163 259.464C252.304 260.352 252.662 261.043 253.238 261.535C253.812 262.015 254.502 262.191 255.308 262.063ZM265.076 252.643C266.155 252.473 267.084 252.666 267.865 253.222C268.658 253.777 269.17 254.789 269.403 256.259L270.197 261.273L268.259 261.58L267.482 256.673C267.345 255.807 267.057 255.179 266.618 254.787C266.18 254.394 265.605 254.255 264.894 254.367C264.135 254.487 263.579 254.849 263.225 255.452C262.881 256.041 262.782 256.798 262.928 257.722L263.655 262.309L261.735 262.613L260.293 253.51L261.964 253.246L262.366 254.403C262.916 253.429 263.82 252.842 265.076 252.643ZM269.317 252.081L271.379 251.754L275.001 258.398L276.357 250.966L278.384 250.645L276.466 260.28L274.119 260.651L269.317 252.081ZM279.395 255.169C279.246 254.232 279.301 253.385 279.557 252.628C279.824 251.857 280.259 251.229 280.863 250.745C281.476 250.246 282.216 249.929 283.081 249.792C283.958 249.653 284.757 249.709 285.477 249.959C286.208 250.208 286.816 250.628 287.298 251.22C287.793 251.81 288.115 252.542 288.266 253.417C288.303 253.654 288.324 253.9 288.328 254.155L281.466 255.242L281.482 255.348C281.656 256.135 282.004 256.724 282.528 257.114C283.051 257.505 283.686 257.642 284.433 257.523C285.026 257.43 285.502 257.214 285.862 256.878C286.22 256.53 286.423 256.09 286.473 255.56L288.393 255.256C288.374 256.207 288.043 257.037 287.402 257.746C286.773 258.453 285.913 258.893 284.823 259.065C283.875 259.216 283.015 259.157 282.244 258.891C281.483 258.61 280.851 258.152 280.349 257.514C279.859 256.875 279.541 256.093 279.395 255.169ZM286.203 253.051C286.015 252.401 285.667 251.928 285.158 251.631C284.66 251.322 284.073 251.22 283.397 251.327C282.769 251.427 282.255 251.709 281.854 252.173C281.464 252.624 281.284 253.175 281.314 253.826L286.203 253.051ZM294.179 248.143L294.464 249.939L293.61 250.074C292.816 250.2 292.283 250.552 292.01 251.129C291.735 251.695 291.66 252.375 291.786 253.17L292.51 257.739L290.59 258.043L289.148 248.94L290.855 248.67L291.285 250.005C291.478 249.537 291.763 249.152 292.141 248.849C292.516 248.534 293.053 248.322 293.753 248.211L294.179 248.143ZM297.633 253.847C297.743 254.316 298.024 254.672 298.476 254.917C298.938 255.147 299.495 255.211 300.147 255.108C300.727 255.016 301.179 254.835 301.5 254.565C301.832 254.282 301.969 253.956 301.911 253.589C301.862 253.281 301.742 253.063 301.552 252.935C301.362 252.807 301.12 252.736 300.826 252.722C300.542 252.694 300.104 252.69 299.512 252.711C298.703 252.742 298.025 252.722 297.479 252.651C296.944 252.565 296.488 252.376 296.114 252.083C295.749 251.776 295.52 251.327 295.426 250.734C295.338 250.177 295.414 249.661 295.655 249.185C295.905 248.696 296.285 248.29 296.792 247.966C297.312 247.641 297.921 247.423 298.62 247.312C299.77 247.13 300.741 247.238 301.533 247.635C302.336 248.03 302.841 248.685 303.047 249.6L301.18 249.896C301.067 249.488 300.806 249.183 300.397 248.981C299.987 248.767 299.503 248.703 298.946 248.792C298.389 248.88 297.955 249.058 297.645 249.326C297.335 249.593 297.21 249.911 297.268 250.278C297.311 250.551 297.427 250.745 297.615 250.861C297.814 250.964 298.048 251.024 298.318 251.042C298.586 251.048 299.017 251.04 299.609 251.019C300.404 250.978 301.082 251.005 301.644 251.098C302.204 251.179 302.673 251.384 303.053 251.713C303.432 252.03 303.671 252.508 303.773 253.148C303.863 253.717 303.777 254.247 303.514 254.738C303.25 255.217 302.846 255.622 302.303 255.951C301.758 256.268 301.124 256.484 300.401 256.598C299.18 256.791 298.147 256.676 297.302 256.251C296.468 255.812 295.961 255.108 295.784 254.14L297.633 253.847ZM304.705 242.74C305.037 242.688 305.333 242.756 305.594 242.946C305.853 243.123 306.009 243.378 306.061 243.71C306.114 244.042 306.045 244.338 305.856 244.599C305.665 244.848 305.403 244.999 305.071 245.051C304.739 245.104 304.444 245.041 304.185 244.864C303.924 244.674 303.767 244.414 303.715 244.082C303.662 243.75 303.731 243.459 303.923 243.21C304.112 242.95 304.373 242.793 304.705 242.74ZM304.322 246.537L306.242 246.233L307.684 255.335L305.764 255.639L304.322 246.537ZM313.885 254.462C312.973 254.607 312.131 254.546 311.36 254.279C310.598 253.999 309.967 253.54 309.465 252.903C308.973 252.252 308.654 251.464 308.507 250.539C308.363 249.627 308.425 248.791 308.693 248.031C308.972 247.258 309.43 246.621 310.067 246.119C310.716 245.615 311.497 245.291 312.41 245.147C313.322 245.002 314.159 245.07 314.921 245.35C315.694 245.629 316.326 246.094 316.818 246.745C317.32 247.382 317.643 248.157 317.788 249.07C317.934 249.994 317.868 250.843 317.59 251.616C317.321 252.375 316.862 253.007 316.213 253.511C315.574 254.001 314.798 254.318 313.885 254.462ZM313.626 252.827C314.432 252.699 315.034 252.318 315.432 251.684C315.839 251.037 315.973 250.268 315.832 249.379C315.691 248.49 315.328 247.807 314.742 247.329C314.166 246.837 313.475 246.655 312.669 246.782C311.863 246.91 311.262 247.297 310.866 247.942C310.469 248.576 310.34 249.338 310.481 250.227C310.622 251.116 310.98 251.806 311.556 252.298C312.13 252.778 312.82 252.954 313.626 252.827ZM323.394 243.407C324.473 243.236 325.402 243.429 326.183 243.986C326.976 244.541 327.488 245.553 327.721 247.022L328.515 252.036L326.577 252.343L325.8 247.436C325.663 246.571 325.375 245.942 324.936 245.55C324.498 245.158 323.923 245.018 323.212 245.131C322.453 245.251 321.897 245.612 321.543 246.215C321.199 246.804 321.1 247.561 321.246 248.485L321.973 253.072L320.053 253.376L318.611 244.274L320.282 244.009L320.684 245.166C321.234 244.192 322.138 243.606 323.394 243.407ZM244.931 274.792C246.294 274.576 247.394 274.693 248.23 275.144C249.079 275.593 249.584 276.327 249.746 277.346C249.864 278.093 249.76 278.741 249.434 279.291C249.118 279.827 248.6 280.237 247.879 280.521C249.791 280.546 250.876 281.377 251.135 283.012C251.306 284.091 251.037 285.002 250.329 285.746C249.632 286.488 248.543 286.976 247.062 287.211L242.333 287.96L240.362 275.515L244.931 274.792ZM243.242 280.472L245.82 280.063C246.52 279.953 247.034 279.707 247.362 279.327C247.703 278.945 247.829 278.476 247.74 277.919C247.652 277.361 247.388 276.96 246.948 276.714C246.518 276.454 245.954 276.379 245.254 276.49L242.676 276.898L243.242 280.472ZM244.104 285.912L246.806 285.484C247.612 285.356 248.203 285.099 248.579 284.711C248.965 284.31 249.112 283.819 249.02 283.238C248.925 282.633 248.631 282.2 248.14 281.938C247.649 281.675 247.006 281.607 246.212 281.733L243.51 282.161L244.104 285.912ZM257.707 285.634C256.794 285.779 255.952 285.718 255.181 285.451C254.42 285.171 253.788 284.712 253.286 284.075C252.794 283.424 252.475 282.636 252.329 281.711C252.184 280.799 252.246 279.963 252.515 279.203C252.793 278.43 253.251 277.793 253.889 277.291C254.538 276.787 255.319 276.463 256.231 276.319C257.144 276.174 257.981 276.242 258.742 276.522C259.515 276.801 260.148 277.266 260.64 277.917C261.141 278.554 261.465 279.329 261.609 280.242C261.756 281.166 261.69 282.015 261.411 282.788C261.143 283.547 260.684 284.179 260.035 284.683C259.395 285.173 258.619 285.49 257.707 285.634ZM257.448 283.999C258.254 283.871 258.856 283.49 259.253 282.856C259.661 282.209 259.794 281.44 259.654 280.551C259.513 279.662 259.149 278.979 258.563 278.501C257.987 278.009 257.296 277.827 256.49 277.954C255.684 278.082 255.084 278.469 254.688 279.114C254.29 279.749 254.161 280.51 254.302 281.399C254.443 282.288 254.801 282.978 255.378 283.47C255.952 283.95 256.642 284.127 257.448 283.999ZM268.193 283.974C267.281 284.118 266.439 284.057 265.668 283.79C264.906 283.51 264.275 283.051 263.773 282.414C263.281 281.763 262.962 280.975 262.815 280.051C262.671 279.138 262.733 278.302 263.001 277.543C263.28 276.77 263.738 276.132 264.375 275.63C265.024 275.126 265.805 274.802 266.718 274.658C267.63 274.513 268.467 274.581 269.229 274.861C270.002 275.14 270.634 275.605 271.126 276.256C271.628 276.893 271.951 277.668 272.096 278.581C272.242 279.505 272.176 280.354 271.898 281.127C271.629 281.886 271.17 282.518 270.521 283.022C269.882 283.512 269.106 283.829 268.193 283.974ZM267.934 282.338C268.74 282.21 269.342 281.829 269.74 281.195C270.147 280.548 270.281 279.779 270.14 278.89C269.999 278.002 269.636 277.318 269.05 276.84C268.474 276.348 267.783 276.166 266.977 276.293C266.171 276.421 265.57 276.808 265.174 277.454C264.776 278.088 264.648 278.849 264.789 279.738C264.93 280.627 265.288 281.317 265.864 281.809C266.438 282.289 267.128 282.466 267.934 282.338ZM275.361 279.649C275.472 280.117 275.753 280.474 276.205 280.718C276.667 280.949 277.224 281.012 277.876 280.909C278.456 280.817 278.908 280.636 279.229 280.367C279.561 280.083 279.698 279.758 279.64 279.391C279.591 279.082 279.471 278.864 279.281 278.737C279.091 278.609 278.849 278.538 278.555 278.524C278.271 278.496 277.833 278.492 277.241 278.513C276.432 278.544 275.754 278.524 275.208 278.452C274.672 278.367 274.217 278.178 273.843 277.885C273.478 277.578 273.249 277.128 273.155 276.536C273.067 275.979 273.143 275.462 273.384 274.987C273.634 274.498 274.013 274.091 274.521 273.768C275.041 273.443 275.65 273.225 276.349 273.114C277.499 272.932 278.47 273.039 279.262 273.436C280.065 273.832 280.57 274.487 280.776 275.402L278.909 275.697C278.796 275.29 278.535 274.985 278.126 274.783C277.716 274.568 277.232 274.505 276.675 274.593C276.118 274.682 275.684 274.86 275.374 275.127C275.064 275.395 274.938 275.713 274.997 276.08C275.04 276.353 275.156 276.547 275.344 276.663C275.543 276.765 275.777 276.825 276.047 276.843C276.315 276.849 276.745 276.842 277.337 276.821C278.133 276.78 278.811 276.806 279.373 276.9C279.932 276.981 280.402 277.186 280.782 277.515C281.161 277.831 281.4 278.31 281.502 278.95C281.592 279.519 281.506 280.049 281.243 280.54C280.979 281.019 280.575 281.423 280.032 281.752C279.487 282.069 278.853 282.285 278.13 282.4C276.909 282.593 275.876 282.477 275.031 282.052C274.196 281.613 273.69 280.91 273.512 279.942L275.361 279.649ZM282.905 273.935L281.323 274.185L281.055 272.496L282.638 272.246L282.235 269.703L284.173 269.396L284.576 271.939L286.762 271.592L287.03 273.281L284.843 273.628L285.595 278.374C285.651 278.73 285.763 278.974 285.929 279.105C286.094 279.225 286.348 279.257 286.692 279.203L288.15 278.972L288.417 280.661L286.568 280.954C285.703 281.091 285.037 280.99 284.57 280.651C284.115 280.31 283.821 279.718 283.688 278.877L282.905 273.935Z" fill="white"/>
<path d="M524.199 299.379H524.196L524.172 299.382V315.841C524.172 322.206 534.49 327.365 547.216 327.365C559.943 327.365 570.261 322.206 570.261 315.841V299.382C518.596 299.379 524.686 299.379 524.199 299.379Z" fill="#FFDA2D"/>
<path d="M570.263 282.391H524.174C524.181 299.788 524.154 298.931 524.197 299.379H524.201C524.751 305.497 534.845 310.373 547.218 310.373C559.592 310.373 569.685 305.497 570.235 299.379H570.239C570.282 298.935 570.256 299.834 570.263 282.391Z" fill="#FDBF00"/>
<path d="M524.172 265.93V282.391C524.172 288.753 534.49 293.912 547.216 293.912C559.943 293.912 570.261 288.753 570.261 282.391V265.93H524.172Z" fill="#FFDA2D"/>
<path d="M524.172 249.469V265.931C524.172 272.293 534.49 277.451 547.216 277.451C559.943 277.451 570.261 272.293 570.261 265.931V249.469H524.172Z" fill="#FDBF00"/>
<path d="M524.172 233.008V249.47C524.172 255.835 534.49 260.994 547.216 260.994C559.943 260.994 570.261 255.835 570.261 249.47V233.008H524.172Z" fill="#FFDA2D"/>
<path d="M571.78 191.072L559.622 184.992C557.943 184.153 555.902 184.833 555.062 186.513C554.223 188.191 554.903 190.232 556.583 191.072L561.586 193.573L503.98 214.394L498.536 203.504C497.741 201.916 495.857 201.207 494.214 201.877L402.457 239.259C400.719 239.968 399.884 241.951 400.592 243.689C401.301 245.43 403.287 246.261 405.021 245.554L493.864 209.359L499.253 220.137C500.024 221.679 501.827 222.4 503.448 221.813L563.455 200.125L561.142 204.75C560.005 207.024 561.682 209.669 564.179 209.669C565.426 209.669 566.626 208.981 567.221 207.789L573.301 195.631C574.14 193.952 573.46 191.911 571.78 191.072Z" fill="#7FE881"/>
<path d="M547.216 221.484C559.943 221.484 570.261 226.643 570.261 233.005C570.261 239.37 559.943 244.529 547.216 244.529C534.489 244.529 524.172 239.37 524.172 233.005C524.172 226.643 534.49 221.484 547.216 221.484Z" fill="#FDBF00"/>
<path d="M510.044 299.383H463.955C463.962 316.78 463.935 315.924 463.979 316.372H463.982C464.532 322.489 474.626 327.366 486.999 327.366C499.373 327.366 509.466 322.489 510.017 316.372H510.02C510.063 315.927 510.037 316.826 510.044 299.383Z" fill="#FFDA2D"/>
<path d="M463.957 282.922V299.384C463.957 305.746 474.275 310.905 487.001 310.905C499.729 310.905 510.046 305.746 510.046 299.384V282.922H463.957Z" fill="#FDBF00"/>
<path d="M463.957 266.461V282.923C463.957 289.285 474.275 294.443 487.001 294.443C499.729 294.443 510.046 289.285 510.046 282.923V266.461H463.957Z" fill="#FFDA2D"/>
<path d="M463.957 250V266.462C463.957 272.827 474.275 277.986 487.001 277.986C499.729 277.986 510.046 272.827 510.046 266.462V250H463.957Z" fill="#FDBF00"/>
<path d="M487.001 238.477C499.729 238.477 510.046 243.635 510.046 249.997C510.046 256.363 499.728 261.521 487.001 261.521C474.275 261.521 463.957 256.363 463.957 249.997C463.957 243.635 474.275 238.477 487.001 238.477Z" fill="#FFDA2D"/>
<path d="M403.738 299.383V315.845C403.738 322.206 414.056 327.365 426.783 327.365C439.51 327.365 449.827 322.206 449.827 315.845V299.383H403.738Z" fill="#FDBF00"/>
<path d="M403.738 282.922V299.384C403.738 305.746 414.056 310.905 426.783 310.905C439.51 310.905 449.827 305.746 449.827 299.384V282.922H403.738Z" fill="#FFDA2D"/>
<path d="M403.738 266.461V282.923C403.738 289.288 414.056 294.447 426.783 294.447C439.51 294.447 449.827 289.288 449.827 282.923V266.461H403.738Z" fill="#FDBF00"/>
<path d="M426.783 254.941C439.51 254.941 449.827 260.1 449.827 266.462C449.827 272.827 439.51 277.986 426.783 277.986C414.056 277.986 403.738 272.827 403.738 266.462C403.738 260.1 414.056 254.941 426.783 254.941Z" fill="#FFDA2D"/>
</g>
<defs>
<filter id="filter0_d_718_4988" x="338.074" y="109.07" width="297.137" height="297.141" filterUnits="userSpaceOnUse" color-interpolation-filters="sRGB">
<feFlood flood-opacity="0" result="BackgroundImageFix"/>
<feColorMatrix in="SourceAlpha" type="matrix" values="0 0 0 0 0 0 0 0 0 0 0 0 0 0 0 0 0 0 127 0" result="hardAlpha"/>
<feOffset dx="-4" dy="4"/>
<feGaussianBlur stdDeviation="2"/>
<feComposite in2="hardAlpha" operator="out"/>
<feColorMatrix type="matrix" values="0 0 0 0 0.384615 0 0 0 0 0.384615 0 0 0 0 0.384615 0 0 0 0.25 0"/>
<feBlend mode="normal" in2="BackgroundImageFix" result="effect1_dropShadow_718_4988"/>
<feBlend mode="normal" in="SourceGraphic" in2="effect1_dropShadow_718_4988" result="shape"/>
</filter>
<clipPath id="clip0_718_4988">
<rect width="636" height="385" fill="white"/>
</clipPath>
<clipPath id="clip1_718_4988">
<rect width="138.911" height="63.9533" fill="white" transform="translate(55.3242 170.969) rotate(-8.98398)"/>
</clipPath>
<clipPath id="clip2_718_4988">
<rect width="138.911" height="67.1211" fill="white" transform="translate(74 256.691) rotate(-8.98398)"/>
</clipPath>
</defs>
</svg>
