<svg width="195" height="45" viewBox="0 0 195 45" fill="none" xmlns="http://www.w3.org/2000/svg">
<mask id="mask0_933_8081" style="mask-type:luminance" maskUnits="userSpaceOnUse" x="7" y="5" width="184" height="32">
<path d="M191 5H7V37H191V5Z" fill="white"/>
</mask>
<g mask="url(#mask0_933_8081)">
<path d="M7 36.5196V5.86523H18.5637C28.9621 5.86523 34.2504 12.6861 34.2504 21.1478C34.2504 30.4299 28.1104 36.5196 18.5637 36.5196H7ZM18.5637 11.0864H13.1863V31.2915H18.5637C24.6609 31.2915 28.0213 26.932 28.0213 21.1444C28.0213 15.3568 24.5718 11.083 18.5637 11.083V11.0864Z" fill="#6F7271"/>
<path d="M38.4199 10.743V5H44.4245V10.743H38.4199ZM38.4199 36.5194V13.8942H44.4245V36.5194H38.4199Z" fill="#6F7271"/>
<path d="M48.1911 29.7839C48.1911 25.4655 52.3141 22.4859 58.1868 22.4859C60.2929 22.4859 62.3989 22.8326 63.9241 23.478V22.1838C63.9241 19.2042 62.1316 17.5222 58.6786 17.5222C56.1698 17.5222 53.8393 18.3872 51.327 20.0693L49.4882 16.3997C52.535 14.4567 55.7636 13.5059 59.2594 13.5059C65.9838 13.5059 69.9251 16.8288 69.9251 22.8326V29.8697C69.9251 31.0781 70.3741 31.5552 71.5394 31.5964V36.5189C70.4204 36.7352 69.387 36.821 68.6707 36.821C66.4293 36.7764 65.264 35.7431 64.9504 34.1435L64.815 32.8905C62.7089 35.5235 59.6158 36.948 56.209 36.948C51.637 36.948 48.1875 33.8826 48.1875 29.7805L48.1911 29.7839ZM62.937 30.8206C63.5642 30.3469 63.9241 29.7427 63.9241 29.1798V26.588C62.4916 26.0697 60.6955 25.723 59.1739 25.723C56.0807 25.723 53.8856 27.2334 53.8856 29.3068C53.8856 31.2497 55.6353 32.7189 57.9195 32.7189C59.9365 32.7189 61.9071 31.9843 62.9406 30.8206H62.937Z" fill="#6F7271"/>
<path d="M75.623 5H81.6276V29.0051C81.6276 30.6906 82.5256 31.6381 84.0936 31.6381C84.7671 31.6381 85.7079 31.3772 86.4705 31.0751L87.2758 35.6956C85.6615 36.4302 83.2882 36.8627 81.5385 36.8627C77.8182 36.8627 75.623 34.8339 75.623 31.2914V5Z" fill="#6F7271"/>
<path d="M111.255 26.8465C109.822 30.1694 106.547 31.5082 103.814 31.5082C99.032 31.5082 95.5682 27.4816 94.9482 22.6895H88.7227C89.5494 29.8845 95.4542 36.774 103.636 36.774C108.611 36.774 114.394 34.2269 116.319 29.651L111.255 26.8465Z" fill="#6F7271"/>
<path d="M95.0016 19.2385C95.668 14.9784 98.5723 10.9587 103.679 10.9587C106.369 10.9587 109.594 12.0812 111.073 15.5346L115.823 12.3833C113.853 8.41162 109.505 5.68945 103.857 5.68945C94.966 5.68945 89.5138 12.3421 88.7227 19.235H94.9981L95.0016 19.2385Z" fill="#00AFAA"/>
<path d="M118.336 29.7839C118.336 25.4655 122.459 22.4859 128.332 22.4859C130.438 22.4859 132.544 22.8326 134.069 23.478V22.1838C134.069 19.2042 132.277 17.5222 128.823 17.5222C126.315 17.5222 123.984 18.3872 121.472 20.0693L119.633 16.3997C122.68 14.4567 125.908 13.5059 129.404 13.5059C136.129 13.5059 140.074 16.8288 140.074 22.8326V29.8697C140.074 31.0781 140.523 31.5552 141.688 31.5964V36.5189C140.569 36.7352 139.535 36.821 138.819 36.821C136.578 36.7764 135.412 35.7431 135.099 34.1435L134.963 32.8905C132.857 35.5235 129.764 36.948 126.357 36.948C121.785 36.948 118.336 33.8826 118.336 29.7805V29.7839ZM133.082 30.8206C133.709 30.3469 134.069 29.7427 134.069 29.1798V26.588C132.636 26.0697 130.84 25.723 129.319 25.723C126.226 25.723 124.03 27.2334 124.03 29.3068C124.03 31.2497 125.78 32.7189 128.064 32.7189C130.081 32.7189 132.052 31.9843 133.085 30.8206H133.082Z" fill="#6F7271"/>
<path d="M159.798 18.9024C156.167 18.947 153.073 20.2824 151.819 22.8329V36.5192H145.814V13.8941H151.327V18.7308C152.942 15.6653 155.721 13.5508 158.59 13.5508C159.217 13.5508 159.531 13.5954 159.801 13.6366V18.9024H159.798Z" fill="#6F7271"/>
<path d="M161.725 25.3351C161.725 18.9021 166.475 13.5059 174.14 13.5059C181.805 13.5059 186.377 18.9879 186.377 25.1188C186.377 25.8534 186.331 26.588 186.242 27.0617H168.089C168.403 30.6009 171.182 32.7189 174.318 32.7189C176.695 32.7189 179.115 31.5106 179.877 29.6535L185.03 31.0334C183.327 34.4868 179.293 36.948 174.094 36.948C166.518 36.948 161.725 31.593 161.725 25.3351ZM180.191 23.3063C179.877 19.9388 177.322 17.6938 174.051 17.6938C170.78 17.6938 168.267 19.9388 168 23.3063H180.191Z" fill="#6F7271"/>
<path d="M191 34.5242C191 35.911 189.871 36.9992 188.399 36.9992C186.927 36.9992 185.783 35.911 185.783 34.5242C185.783 33.1374 186.945 32.0801 188.399 32.0801C189.853 32.0801 191 33.1683 191 34.5242ZM186.435 34.5242C186.435 35.6124 187.273 36.4774 188.417 36.4774C189.561 36.4774 190.352 35.6124 190.352 34.5379C190.352 33.4635 189.532 32.571 188.402 32.571C187.273 32.571 186.435 33.4497 186.435 34.5242ZM188 35.8046H187.412V33.3605C187.643 33.3159 187.968 33.285 188.388 33.285C188.869 33.285 189.083 33.3605 189.272 33.4635C189.411 33.5665 189.518 33.7621 189.518 33.999C189.518 34.2667 189.3 34.4761 188.99 34.5654V34.5963C189.236 34.6855 189.379 34.864 189.454 35.1936C189.532 35.5677 189.578 35.7153 189.639 35.8046H189.005C188.926 35.7153 188.88 35.4922 188.805 35.2073C188.759 34.9396 188.606 34.8194 188.278 34.8194H188V35.8046ZM188.014 34.4178H188.292C188.616 34.4178 188.88 34.3148 188.88 34.0608C188.88 33.8376 188.709 33.6866 188.338 33.6866C188.185 33.6866 188.075 33.7003 188.014 33.7175V34.4178Z" fill="#686A6C"/>
</g>
</svg>
