<svg width="135" height="24" viewBox="0 0 135 24" fill="none" xmlns="http://www.w3.org/2000/svg">
<g clip-path="url(#clip0_1119_5404)">
<path d="M2.67128 2.80886C3.58926 3.20548 19.828 10.822 19.8715 10.8432L15.8348 12.6058C15.749 12.564 4.7846 7.46436 4.03131 7.09778V19.8763L39.9997 3.07754L40.4529 2.86635C41.0895 2.56948 41.8471 2.84345 42.1449 3.47829C42.2239 3.64656 42.2648 3.83006 42.2648 4.01582V22.818C42.2648 23.5188 41.695 24.0869 40.9919 24.0869C40.8136 24.0869 40.6378 24.0496 40.4748 23.9775L40.0275 23.7792L23.3297 16.0447L27.0916 14.2214L39.1007 19.8763V7.09778L3.12861 23.7665L2.67556 23.9778C2.03868 24.2748 1.28096 24.0007 0.983141 23.3659C0.9042 23.1976 0.863281 23.0141 0.863281 22.8283V3.95933C0.863853 3.25851 1.43426 2.69084 2.13733 2.69141C2.32175 2.69156 2.50394 2.73164 2.67128 2.80886Z" fill="#D40000"/>
<path d="M64.6454 6.88281V8.92236C62.2059 8.97466 57.6415 8.92236 57.0906 8.92236C56.6185 8.92236 55.9299 9.39303 55.7528 9.62836C55.4775 9.99429 55.2019 10.4285 55.2019 10.805V12.2955L64.6454 12.3739V14.4135H55.2019V15.747C55.2019 16.2177 55.5758 16.7668 55.7528 17.0021C55.9889 17.316 56.6971 17.7081 57.3267 17.7081H64.6454V19.8261H56.1463C55.1987 19.8261 53.7854 18.9632 52.9985 18.0219C52.3689 17.2689 52.159 16.2961 52.1328 15.9039C52.1853 14.2043 52.2902 10.6638 52.2902 10.099C52.2902 9.39303 52.7624 8.60859 53.7854 7.82415C54.6039 7.19659 55.7003 6.93511 56.1463 6.88281H64.6454Z" fill="black"/>
<path d="M73.3939 6.88281H70.2461V15.5901C70.2461 15.8255 70.2646 16.4531 70.6396 17.159C71.3478 18.4926 71.9774 18.8063 72.5283 19.277C72.969 19.6536 74.076 19.8523 74.5744 19.9046H80.1618V17.7082H75.1252C74.8892 17.6297 74.4957 17.428 74.1809 17.159C73.7402 16.7825 73.4726 16.1131 73.3939 15.8255V6.88281Z" fill="black"/>
<path d="M98.2782 6.88281V8.92236C95.8387 8.97466 91.2743 8.92236 90.7234 8.92236C90.2513 8.92236 89.5627 9.39303 89.3856 9.62836C89.1103 9.99429 88.8348 10.4285 88.8348 10.805V12.2955L98.2782 12.3739V14.4135H88.8348V15.747C88.8348 16.2177 89.2086 16.7668 89.3856 17.0021C89.6217 17.316 90.33 17.7081 90.9595 17.7081H98.2782V19.8261H89.7791C88.8315 19.8261 87.4182 18.9632 86.6313 18.0219C86.0017 17.2689 85.7919 16.2961 85.7656 15.9039C85.8181 14.2043 85.923 10.6638 85.923 10.099C85.923 9.39303 86.3952 8.60859 87.4182 7.82415C88.2367 7.19659 89.3332 6.93511 89.7791 6.88281H98.2782Z" fill="black"/>
<path d="M116.234 8.93085V6.8913H107.342C107.105 6.8913 106.712 6.80165 106.004 7.20508C105.453 7.51885 104.745 8.14641 104.351 8.69552C104.036 9.13481 103.905 9.6107 103.879 9.79374V16.3831C103.879 16.5138 103.91 16.8694 104.036 17.246C104.194 17.7166 104.508 18.4084 105.295 19.0502C105.988 19.615 106.791 19.8085 107.105 19.8346H116.313V17.7166L108.05 17.6382C107.892 17.6382 107.578 17.4029 107.42 17.246C107.221 17.0475 107.053 16.6184 107.027 16.3831V10.1075C107.053 9.97678 107.168 9.65254 107.42 9.40152C107.672 9.1505 108.05 8.93085 108.443 8.93085H116.234Z" fill="black"/>
<path d="M131.628 6.88281H124.672C124.489 6.88281 123.885 6.96126 123.492 7.19659C122.827 7.59408 122.626 7.7457 122.311 8.21637C122.06 8.5929 121.944 9.1577 121.918 9.39303V17.2375C121.944 17.6297 122.186 18.5397 122.941 19.0417C123.696 19.5437 124.386 19.8261 124.751 19.8261C128.662 19.8261 130.617 19.8261 130.617 19.8261C130.617 19.8261 131.283 19.7905 131.459 19.4548C131.684 19.7023 131.796 19.8261 131.796 19.8261C131.796 19.8261 132.863 19.8261 134.996 19.8261L129.709 14.5862H126.744L129.709 17.6297H126.089C125.617 17.5512 125.381 17.3943 125.223 17.2375C125.001 17.0156 124.908 16.6884 124.908 16.4531V9.94214C124.935 9.86369 124.971 9.56561 125.223 9.31459C125.475 9.06357 125.774 9.00081 125.931 9.00081H130.26C130.338 9.02696 130.559 9.11063 130.811 9.23614C131.062 9.36165 131.23 9.75911 131.283 9.94214V15.9039C131.283 15.9039 131.283 17.2375 131.283 17.9438C131.283 18.7446 131.928 19.0417 132.301 19.0417C132.675 19.0417 133.143 19.0417 133.817 18.4475C134.171 18.1353 134.273 17.6297 134.273 16.9366C134.273 16.4531 134.273 15.9039 134.273 15.9039V9.23614C134.273 8.92236 133.88 8.21637 133.408 7.7457C132.967 7.30641 132.178 6.88281 131.628 6.88281Z" fill="black"/>
</g>
<defs>
<clipPath id="clip0_1119_5404">
<rect width="135" height="24" fill="white"/>
</clipPath>
</defs>
</svg>
