<svg width="408" height="385" viewBox="0 0 408 385" fill="none" xmlns="http://www.w3.org/2000/svg">
<g clip-path="url(#clip0_726_4901)">
<rect x="-0.125" y="68.8242" width="339" height="339.001" rx="20" transform="rotate(-9.59242 -0.125 68.8242)" fill="#F5F5F5"/>
<rect x="35.3359" y="98.3828" width="28" height="9" rx="4.5" transform="rotate(-10 35.3359 98.3828)" fill="#D9D9D9" fill-opacity="0.8"/>
<rect x="71.7734" y="91.9609" width="28" height="9" rx="4.5" transform="rotate(-10 71.7734 91.9609)" fill="#D9D9D9" fill-opacity="0.9"/>
<rect x="108.215" y="85.5352" width="28" height="9" rx="4.5" transform="rotate(-10 108.215 85.5352)" fill="#D9D9D9" fill-opacity="0.9"/>
<rect x="144.652" y="79.1094" width="28" height="9" rx="4.5" transform="rotate(-10 144.652 79.1094)" fill="#D9D9D9" fill-opacity="0.95"/>
<rect x="181.09" y="72.6836" width="28" height="9" rx="4.5" transform="rotate(-10 181.09 72.6836)" fill="#DEFE94"/>
<rect x="217.527" y="66.2578" width="28" height="9" rx="4.5" transform="rotate(-10 217.527 66.2578)" fill="#DEFE94"/>
<rect x="253.965" y="59.8359" width="28" height="9" rx="4.5" transform="rotate(-10 253.965 59.8359)" fill="#DEFE94"/>
<rect x="290.402" y="53.4102" width="28" height="9" rx="4.5" transform="rotate(-10 290.402 53.4102)" fill="#DEFE94"/>
<g clip-path="url(#clip1_726_4901)">
<path d="M167.538 197.814C171.215 197.106 174.663 197.309 177.882 198.423C181.156 199.526 183.918 201.421 186.168 204.108C188.419 206.794 189.914 210.06 190.654 213.904C191.468 218.138 191.218 221.941 189.903 225.314C188.588 228.687 186.465 231.464 183.534 233.646C180.603 235.828 177.188 237.294 173.288 238.044C168.998 238.87 165.077 238.758 161.524 237.709C158.027 236.648 155.114 234.869 152.784 232.371C150.444 229.817 148.825 226.807 147.926 223.34L157.118 221.571C158.064 224.682 159.882 227.077 162.574 228.754C165.265 230.431 168.338 230.938 171.792 230.273C173.854 229.876 175.684 229.033 177.285 227.743C178.941 226.442 180.149 224.765 180.91 222.712C181.67 220.659 181.798 218.323 181.294 215.705C180.608 212.14 178.959 209.424 176.347 207.558C173.79 205.681 170.729 205.086 167.164 205.772C164.824 206.223 162.614 207.197 160.533 208.695C158.453 210.193 157.196 212.37 156.764 215.226L147.79 216.78L143.064 182.766L179.498 175.754L181.058 183.859L153.147 189.231L155.197 205.735C156.515 203.575 158.263 201.852 160.442 200.566C162.61 199.225 164.976 198.307 167.538 197.814ZM194.881 201.738C193.809 196.167 193.807 191.054 194.875 186.4C195.989 181.679 198.075 177.811 201.135 174.796C204.183 171.725 207.964 169.755 212.476 168.887C216.933 168.029 221.119 168.465 225.034 170.196C228.994 171.861 232.367 174.678 235.154 178.648C237.929 182.562 239.853 187.305 240.925 192.876L241.44 195.55C242.555 201.344 242.55 206.573 241.426 211.238C240.357 215.892 238.288 219.699 235.218 222.659C232.203 225.608 228.44 227.517 223.927 228.385C219.359 229.264 215.1 228.899 211.151 227.291C207.258 225.671 203.923 222.905 201.148 218.99C198.428 215.065 196.51 210.206 195.395 204.412L194.881 201.738ZM231.714 194.995C230.47 188.533 228.246 183.733 225.042 180.594C221.883 177.389 218.215 176.188 214.037 176.992C209.858 177.797 206.869 180.278 205.07 184.438C203.26 188.541 202.977 193.824 204.221 200.287L204.607 202.292C205.85 208.755 208.08 213.583 211.294 216.777C214.498 219.916 218.189 221.083 222.367 220.279C226.546 219.475 229.512 217.027 231.266 212.934C233.066 208.774 233.343 203.463 232.1 197.001L231.714 194.995ZM248.479 204.049C248.263 202.925 248.332 201.865 248.688 200.869C249.043 199.873 249.643 199.032 250.486 198.346C251.329 197.66 252.336 197.205 253.506 196.98C254.676 196.755 255.78 196.804 256.817 197.127C257.855 197.451 258.724 198.01 259.423 198.803C260.123 199.596 260.581 200.554 260.798 201.678C261.014 202.802 260.944 203.862 260.589 204.859C260.229 205.832 259.627 206.661 258.784 207.347C257.941 208.033 256.934 208.488 255.764 208.713C254.594 208.938 253.49 208.889 252.453 208.566C251.415 208.242 250.549 207.695 249.853 206.925C249.153 206.132 248.695 205.173 248.479 204.049ZM256.013 221.69L267.825 194.438L271.507 193.729L259.661 220.988L256.013 221.69ZM257.666 202.281C257.499 201.409 257.073 200.742 256.389 200.279C255.701 199.793 254.921 199.634 254.049 199.801C253.2 199.965 252.546 200.4 252.088 201.106C251.625 201.79 251.477 202.568 251.645 203.44C251.812 204.312 252.24 204.99 252.929 205.476C253.613 205.94 254.379 206.089 255.228 205.926C256.099 205.758 256.767 205.333 257.23 204.649C257.689 203.942 257.834 203.153 257.666 202.281ZM266.661 213.788C266.445 212.664 266.514 211.604 266.87 210.608C267.225 209.612 267.824 208.771 268.668 208.085C269.511 207.4 270.518 206.944 271.688 206.719C272.858 206.494 273.961 206.543 274.999 206.867C276.037 207.191 276.905 207.749 277.605 208.542C278.305 209.335 278.763 210.294 278.979 211.418C279.191 212.519 279.12 213.567 278.764 214.564C278.409 215.56 277.809 216.401 276.966 217.086C276.123 217.772 275.116 218.227 273.946 218.453C272.776 218.678 271.672 218.629 270.635 218.305C269.597 217.981 268.728 217.423 268.028 216.63C267.329 215.837 266.873 214.89 266.661 213.788ZM275.814 212.027C275.646 211.155 275.218 210.476 274.53 209.99C273.841 209.504 273.073 209.343 272.224 209.506C271.375 209.67 270.71 210.107 270.229 210.818C269.77 211.525 269.624 212.314 269.792 213.186C269.96 214.058 270.386 214.725 271.07 215.188C271.753 215.651 272.531 215.799 273.403 215.631C274.275 215.463 274.931 215.04 275.371 214.36C275.834 213.676 275.982 212.899 275.814 212.027Z" fill="black"/>
</g>
<g clip-path="url(#clip2_726_4901)">
<path d="M60.5414 157.651L61.8094 165.672C62.0156 166.975 62.4275 167.916 63.0452 168.493C63.6609 169.057 64.5087 169.254 65.5886 169.083C66.6817 168.91 67.434 168.461 67.8456 167.734C68.2683 166.992 68.3766 165.97 68.1704 164.666L66.9024 156.645L69.1742 156.286L70.4235 164.188C70.7358 166.164 70.5056 167.739 69.733 168.914C68.9735 170.087 67.6982 170.815 65.9071 171.098C64.1292 171.379 62.6981 171.079 61.6138 170.198C60.5295 169.316 59.8312 167.888 59.5189 165.912L58.2697 158.01L60.5414 157.651ZM74.8141 164.952C75.0091 165.758 75.4424 166.364 76.1142 166.771C76.797 167.163 77.6191 167.282 78.5805 167.13C79.4234 166.997 80.0735 166.712 80.5309 166.275C80.9994 165.823 81.1827 165.275 81.0806 164.629C81.0078 164.168 80.8056 163.829 80.4743 163.612C80.154 163.379 79.7387 163.228 79.2285 163.161C78.7184 163.093 78.0096 163.05 77.1022 163.031C76.1817 163.015 75.379 162.932 74.6941 162.784C74.0203 162.621 73.4377 162.308 72.9461 161.846C72.4677 161.381 72.1609 160.721 72.0255 159.865C71.9006 159.075 71.9933 158.338 72.3038 157.654C72.6273 156.969 73.1308 156.396 73.8142 155.937C74.5107 155.476 75.3397 155.17 76.3011 155.018C77.2888 154.862 78.2003 154.907 79.0356 155.152C79.871 155.398 80.5635 155.809 81.1133 156.383C81.6631 156.958 82.0233 157.657 82.194 158.48L79.9617 158.833C79.7703 158.134 79.3702 157.61 78.7616 157.261C78.1529 156.912 77.4337 156.803 76.604 156.934C75.8007 157.061 75.1835 157.341 74.7524 157.773C74.3324 158.191 74.1724 158.716 74.2723 159.348C74.3431 159.796 74.5376 160.129 74.8558 160.349C75.1872 160.567 75.6004 160.704 76.0953 160.76C76.5902 160.817 77.2914 160.855 78.1987 160.873C79.1193 160.89 79.923 160.979 80.61 161.14C81.2969 161.301 81.8851 161.607 82.3746 162.056C82.8641 162.505 83.1754 163.151 83.3087 163.994C83.4378 164.81 83.336 165.575 83.0035 166.289C82.6709 167.004 82.1452 167.606 81.4265 168.098C80.7057 168.576 79.8514 168.894 78.8637 169.05C77.7706 169.223 76.778 169.177 75.8858 168.913C74.9937 168.649 74.2554 168.206 73.6709 167.583C73.0975 166.944 72.7324 166.172 72.5756 165.265L74.8141 164.952ZM83.7751 153.978L88.1803 153.281C89.5895 153.059 90.8667 153.154 92.0119 153.567C93.1571 153.98 94.0951 154.661 94.8259 155.612C95.5566 156.563 96.0303 157.723 96.2468 159.093C96.4613 160.45 96.3687 161.699 95.9689 162.843C95.5671 163.972 94.8852 164.91 93.9233 165.656C92.9613 166.403 91.7757 166.887 90.3666 167.11L85.9613 167.806L83.7751 153.978ZM90.0542 165.134C91.5424 164.899 92.6184 164.277 93.2823 163.267C93.9441 162.245 94.1552 160.976 93.9158 159.462C93.6764 157.947 93.0852 156.812 92.1423 156.057C91.1974 155.288 89.9808 155.022 88.4927 155.257L86.3592 155.594L87.9207 165.472L90.0542 165.134Z" fill="black"/>
</g>
<g clip-path="url(#clip3_726_4901)">
<path d="M153.806 264.161L156.733 263.597L163.217 273.57L165.452 261.917L168.319 261.364L170.969 275.111L168.789 275.531L166.84 265.417L164.665 276.326L162.76 276.693L156.687 267.374L158.636 277.488L156.456 277.908L153.806 264.161ZM178.046 273.869C177.038 274.064 176.1 274.027 175.234 273.759C174.378 273.476 173.66 272.99 173.079 272.301C172.509 271.596 172.125 270.733 171.928 269.712C171.734 268.704 171.772 267.773 172.042 266.92C172.322 266.051 172.807 265.326 173.497 264.745C174.199 264.162 175.054 263.773 176.062 263.579C177.07 263.384 178.002 263.429 178.858 263.712C179.727 263.993 180.446 264.485 181.017 265.19C181.598 265.879 181.985 266.728 182.18 267.736C182.376 268.757 182.334 269.702 182.054 270.571C181.784 271.424 181.298 272.143 180.595 272.726C179.904 273.294 179.054 273.675 178.046 273.869ZM177.697 272.062C178.588 271.891 179.242 271.446 179.66 270.727C180.089 269.992 180.209 269.134 180.019 268.152C179.83 267.17 179.401 266.425 178.733 265.915C178.075 265.39 177.301 265.214 176.41 265.385C175.52 265.557 174.867 266.009 174.451 266.741C174.033 267.459 173.919 268.31 174.108 269.292C174.297 270.274 174.721 271.027 175.379 271.552C176.034 272.064 176.807 272.234 177.697 272.062ZM188.474 261.309L188.856 263.292L187.913 263.474C187.036 263.643 186.457 264.053 186.175 264.705C185.891 265.344 185.833 266.102 186.002 266.979L186.975 272.026L184.854 272.435L182.916 262.38L184.801 262.016L185.328 263.483C185.526 262.956 185.828 262.518 186.236 262.168C186.641 261.804 187.23 261.548 188.002 261.399L188.474 261.309ZM189.94 266.26C189.741 265.226 189.77 264.284 190.027 263.433C190.294 262.567 190.754 261.853 191.407 261.293C192.07 260.717 192.879 260.337 193.835 260.153C194.804 259.966 195.693 259.999 196.501 260.25C197.323 260.499 198.013 260.943 198.571 261.582C199.142 262.219 199.527 263.021 199.727 263.987C199.777 264.249 199.81 264.521 199.823 264.804L192.243 266.265L192.266 266.383C192.487 267.25 192.896 267.891 193.492 268.305C194.087 268.72 194.798 268.848 195.623 268.689C196.277 268.563 196.798 268.306 197.185 267.919C197.57 267.519 197.78 267.024 197.815 266.433L199.936 266.024C199.95 267.081 199.614 268.015 198.928 268.826C198.256 269.634 197.317 270.155 196.113 270.387C195.066 270.589 194.109 270.556 193.242 270.288C192.387 270.005 191.668 269.519 191.087 268.83C190.52 268.138 190.137 267.282 189.94 266.26ZM197.423 263.657C197.19 262.942 196.786 262.429 196.21 262.119C195.645 261.793 194.989 261.703 194.243 261.846C193.549 261.98 192.988 262.312 192.561 262.843C192.144 263.358 191.965 263.976 192.022 264.698L197.423 263.657ZM208.565 263.22C208.787 264.02 209.24 264.611 209.926 264.995C210.621 265.363 211.447 265.455 212.403 265.271C213.24 265.11 213.881 264.803 214.323 264.351C214.776 263.884 214.941 263.329 214.817 262.688C214.729 262.229 214.515 261.897 214.177 261.691C213.849 261.469 213.429 261.332 212.917 261.282C212.405 261.231 211.695 261.212 210.787 261.224C209.867 261.238 209.062 261.183 208.372 261.058C207.693 260.917 207.101 260.624 206.594 260.179C206.1 259.731 205.771 259.081 205.607 258.23C205.456 257.445 205.524 256.705 205.811 256.011C206.111 255.315 206.595 254.726 207.263 254.245C207.943 253.761 208.762 253.426 209.717 253.242C210.699 253.053 211.612 253.067 212.455 253.285C213.298 253.502 214.004 253.889 214.573 254.445C215.142 255.001 215.525 255.687 215.723 256.504L213.504 256.932C213.289 256.24 212.872 255.73 212.252 255.401C211.632 255.073 210.909 254.988 210.084 255.147C209.286 255.301 208.678 255.601 208.262 256.048C207.856 256.479 207.714 257.009 207.835 257.638C207.921 258.083 208.127 258.41 208.452 258.619C208.791 258.825 209.208 258.948 209.705 258.988C210.201 259.028 210.903 259.042 211.811 259.03C212.731 259.016 213.538 259.078 214.23 259.216C214.922 259.354 215.52 259.64 216.024 260.072C216.528 260.504 216.861 261.139 217.023 261.977C217.179 262.789 217.103 263.557 216.795 264.282C216.486 265.007 215.981 265.627 215.279 266.143C214.575 266.645 213.732 266.991 212.75 267.18C211.663 267.389 210.67 267.377 209.769 267.143C208.869 266.91 208.116 266.491 207.511 265.888C206.916 265.27 206.526 264.51 206.338 263.609L208.565 263.22ZM228.853 262.039L229.209 263.885L228.089 264.101C227.435 264.227 226.937 264.181 226.596 263.961C226.255 263.742 226.034 263.37 225.933 262.847C225.396 264.145 224.4 264.934 222.947 265.215C221.821 265.432 220.867 265.344 220.086 264.951C219.304 264.559 218.825 263.904 218.648 262.988C218.449 261.954 218.663 261.091 219.29 260.4C219.914 259.695 220.927 259.208 222.328 258.938L224.861 258.45L224.744 257.841C224.636 257.278 224.355 256.877 223.901 256.639C223.445 256.387 222.871 256.328 222.177 256.462C221.561 256.581 221.077 256.817 220.724 257.17C220.382 257.507 220.215 257.906 220.222 258.367L218.14 258.768C218.05 257.739 218.345 256.875 219.025 256.173C219.702 255.459 220.676 254.979 221.946 254.735C223.294 254.475 224.395 254.588 225.25 255.075C226.104 255.563 226.645 256.395 226.872 257.574L227.636 261.541C227.727 262.012 227.995 262.205 228.44 262.119L228.853 262.039ZM225.164 260.021L222.533 260.528C221.878 260.654 221.399 260.883 221.096 261.212C220.791 261.529 220.686 261.937 220.782 262.434C220.865 262.866 221.096 263.182 221.473 263.38C221.864 263.577 222.348 263.619 222.924 263.508C223.801 263.339 224.436 262.972 224.83 262.407C225.237 261.84 225.371 261.163 225.232 260.375L225.164 260.021ZM227.118 253.86L229.396 253.421L233.664 260.664L234.894 252.361L237.133 251.929L235.36 262.7L232.767 263.199L227.118 253.86ZM238.491 247.492C238.858 247.422 239.19 247.487 239.486 247.687C239.78 247.875 239.963 248.152 240.034 248.519C240.104 248.885 240.039 249.217 239.838 249.514C239.635 249.797 239.35 249.975 238.983 250.045C238.617 250.116 238.286 250.057 237.992 249.87C237.696 249.669 237.512 249.385 237.441 249.019C237.371 248.652 237.437 248.327 237.64 248.043C237.841 247.747 238.125 247.563 238.491 247.492ZM238.207 251.723L240.328 251.314L242.266 261.369L240.145 261.777L238.207 251.723ZM247.687 249.773C248.878 249.543 249.917 249.723 250.805 250.313C251.706 250.899 252.313 252.005 252.625 253.628L253.693 259.166L251.552 259.579L250.508 254.158C250.323 253.203 249.98 252.515 249.479 252.096C248.977 251.677 248.333 251.543 247.548 251.694C246.71 251.856 246.105 252.278 245.734 252.96C245.374 253.627 245.292 254.471 245.489 255.492L246.466 260.559L244.345 260.968L242.407 250.913L244.253 250.557L244.742 251.828C245.317 250.725 246.299 250.041 247.687 249.773ZM263.444 246.858L265.303 256.501C265.575 257.915 265.367 259.089 264.678 260.022C263.991 260.97 262.771 261.612 261.017 261.95C259.655 262.213 258.489 262.118 257.52 261.667C256.553 261.229 255.916 260.462 255.61 259.367L257.77 258.95C258.01 259.488 258.394 259.862 258.923 260.073C259.455 260.296 260.094 260.336 260.841 260.192C262.765 259.821 263.547 258.699 263.186 256.827L262.97 255.708C262.449 256.949 261.462 257.709 260.009 257.989C259.092 258.166 258.235 258.121 257.437 257.854C256.636 257.574 255.959 257.093 255.407 256.412C254.852 255.718 254.474 254.847 254.272 253.799C254.078 252.791 254.109 251.862 254.366 251.011C254.636 250.158 255.091 249.453 255.73 248.895C256.367 248.324 257.137 247.952 258.04 247.777C258.8 247.631 259.483 247.655 260.091 247.851C260.699 248.046 261.224 248.372 261.665 248.83L261.598 247.214L263.444 246.858ZM260.018 256.134C260.895 255.965 261.544 255.528 261.965 254.822C262.383 254.103 262.498 253.259 262.312 252.291C262.12 251.296 261.696 250.542 261.041 250.03C260.383 249.505 259.615 249.327 258.738 249.496C257.861 249.665 257.213 250.109 256.795 250.828C256.377 251.547 256.263 252.397 256.452 253.379C256.641 254.361 257.063 255.108 257.719 255.62C258.374 256.132 259.141 256.303 260.018 256.134ZM268.504 252.869C268.644 253.385 268.97 253.771 269.48 254.025C270.002 254.264 270.622 254.314 271.342 254.175C271.984 254.052 272.478 253.834 272.826 253.523C273.184 253.196 273.324 252.829 273.245 252.424C273.18 252.083 273.039 251.846 272.823 251.711C272.607 251.576 272.335 251.506 272.008 251.501C271.692 251.481 271.206 251.493 270.549 251.538C269.652 251.602 268.898 251.605 268.29 251.546C267.691 251.471 267.179 251.278 266.752 250.966C266.336 250.639 266.065 250.148 265.939 249.494C265.82 248.878 265.886 248.302 266.135 247.765C266.395 247.213 266.801 246.747 267.353 246.369C267.918 245.989 268.586 245.724 269.359 245.575C270.629 245.331 271.711 245.414 272.605 245.826C273.512 246.235 274.097 246.943 274.359 247.952L272.297 248.349C272.156 247.901 271.855 247.572 271.394 247.363C270.93 247.14 270.39 247.088 269.775 247.206C269.16 247.325 268.685 247.538 268.351 247.847C268.016 248.156 267.888 248.513 267.967 248.919C268.025 249.22 268.161 249.432 268.374 249.554C268.598 249.66 268.861 249.718 269.161 249.728C269.459 249.725 269.937 249.701 270.593 249.655C271.475 249.581 272.23 249.585 272.857 249.667C273.481 249.737 274.01 249.947 274.445 250.298C274.876 250.636 275.16 251.158 275.297 251.865C275.418 252.494 275.342 253.085 275.069 253.641C274.793 254.183 274.359 254.646 273.768 255.032C273.175 255.404 272.479 255.667 271.68 255.821C270.332 256.081 269.18 255.991 268.226 255.55C267.283 255.094 266.695 254.331 266.462 253.263L268.504 252.869Z" fill="black"/>
</g>
</g>
<defs>
<clipPath id="clip0_726_4901">
<rect width="408" height="385" fill="white"/>
</clipPath>
<clipPath id="clip1_726_4901">
<rect width="138.911" height="63.9533" fill="white" transform="translate(135.613 179.168) rotate(-10.8939)"/>
</clipPath>
<clipPath id="clip2_726_4901">
<rect width="40.5417" height="28.7828" fill="white" transform="translate(56 151.332) rotate(-8.98398)"/>
</clipPath>
<clipPath id="clip3_726_4901">
<rect width="125.249" height="28.7828" fill="white" transform="translate(151.234 257.578) rotate(-10.9099)"/>
</clipPath>
</defs>
</svg>
