<svg width="74" height="18" viewBox="0 0 74 18" fill="none" xmlns="http://www.w3.org/2000/svg">
<path d="M0 17.469V14.121H2.403V3.375H0V0H8.019V3.375H5.589V14.121H8.019V17.469H0Z" fill="black"/>
<path d="M11.3115 17.469V14.121H20.9235V12.771H13.7145V10.395H11.3115V7.074H13.7145V4.725H24.1365V8.073H14.4975V9.396H21.7065V11.772H24.1365V15.147H21.7065V17.469H11.3115Z" fill="black"/>
<path d="M27.4219 17.469V0H30.6079V7.074H32.2009V4.725H37.8169V7.074H40.2469V17.469H37.0339V8.073H33.0109V10.395H30.6079V17.469H27.4219Z" fill="black"/>
<path d="M45.4079 17.469V15.147H43.0049V7.074H45.4079V4.725H53.3999V7.074H55.8569V14.121H58.2599V17.469H55.0469V15.147H53.3999V17.469H45.4079ZM46.1909 14.121H52.6169V8.073H46.1909V14.121Z" fill="black"/>
<path d="M60.7236 17.469V4.725H71.1186V7.074H73.5486V17.469H70.3356V8.073H63.9096V17.469H60.7236Z" fill="black"/>
</svg>
