<svg width="96" height="34" viewBox="0 0 96 34" fill="none" xmlns="http://www.w3.org/2000/svg">
<path d="M40.6508 26.2195C39.6647 25.7608 38.8429 25.1186 38.1855 24.2562L40.176 21.6874C40.596 22.2012 41.1073 22.6232 41.7282 22.9902C42.349 23.3571 42.9516 23.5223 43.5543 23.5223C45.4169 23.5223 46.3482 22.2012 46.3482 19.559V5.85254H49.9091V19.5957C49.9091 20.5314 49.836 21.3571 49.6899 22.1094C49.5438 22.8617 49.3247 23.5223 49.0143 24.1461C48.7038 24.7516 48.3021 25.2654 47.8273 25.6691C47.3525 26.0727 46.7682 26.3846 46.0743 26.6048C45.3804 26.825 44.5951 26.9351 43.7003 26.9351C42.6777 26.9351 41.6551 26.7149 40.669 26.2562L40.6508 26.2195Z" fill="#040111"/>
<path d="M57.8176 26.3847C56.868 26.0177 56.0828 25.504 55.4437 24.8434C54.8045 24.1829 54.2932 23.4122 53.9463 22.4948C53.581 21.5957 53.3984 20.6049 53.3984 19.5774C53.3984 18.1645 53.7089 16.9168 54.3115 15.7975C54.9141 14.6783 55.8089 13.7975 56.9593 13.1553C58.1098 12.5131 59.4063 12.1829 60.8854 12.1829C62.3646 12.1829 63.6246 12.4948 64.7567 13.1003C65.8889 13.7241 66.7654 14.5865 67.4046 15.7241C68.0437 16.8434 68.3541 18.1278 68.3541 19.5774C68.3541 21.0269 68.0437 22.293 67.4046 23.4122C66.7654 24.5315 65.8889 25.4122 64.7385 26.0177C63.6063 26.6416 62.3098 26.9352 60.8854 26.9352C59.7898 26.9352 58.7672 26.7517 57.8176 26.3847ZM63.8437 22.715C64.6472 21.8893 65.0489 20.8434 65.0489 19.5774C65.0489 18.3113 64.6472 17.2104 63.862 16.403C63.0767 15.5774 62.0906 15.1737 60.9037 15.1737C59.7167 15.1737 58.6576 15.5957 57.8906 16.4397C57.1237 17.2838 56.7402 18.3296 56.7402 19.5957C56.7402 20.8618 57.1237 21.8709 57.9089 22.715C58.6941 23.559 59.6802 23.981 60.9037 23.981C62.1272 23.981 63.0585 23.559 63.862 22.7333L63.8437 22.715Z" fill="#040111"/>
<path d="M79.908 12.2012V15.8526C79.5428 15.8159 79.2141 15.8159 78.922 15.8159C78.1185 15.8159 77.4063 15.9994 76.8219 16.3663C76.2193 16.7333 75.7811 17.2104 75.4889 17.8342C75.1967 18.4581 75.0324 19.1553 75.0324 19.926V26.715H71.7637V12.403H75.0324V14.5498H75.0689C75.635 13.7792 76.2924 13.192 77.0593 12.7884C77.8263 12.3847 78.648 12.1829 79.5063 12.1829C79.6889 12.1829 79.835 12.1829 79.908 12.1829V12.2012Z" fill="#040111"/>
<path d="M95.9648 12.403V26.715H92.8422V24.7884H92.8057C91.7283 26.2196 90.2126 26.9352 88.2769 26.9352C87.4917 26.9352 86.7613 26.8251 86.0491 26.6049C85.3369 26.3847 84.6978 26.0544 84.1317 25.6324C83.5656 25.2104 83.0726 24.6966 82.6708 24.1095C82.2691 23.5223 81.9404 22.8434 81.7213 22.0728C81.5021 21.3021 81.3926 20.4764 81.3926 19.6141C81.3926 18.5498 81.5752 17.559 81.9221 16.6416C82.2691 15.7058 82.7621 14.9168 83.3648 14.2746C83.9674 13.6324 84.6978 13.1186 85.5561 12.7333C86.3961 12.3663 87.3091 12.1829 88.2769 12.1829C90.1396 12.1829 91.6004 12.8251 92.6778 14.1095H92.7326V12.3847H96.0013L95.9648 12.403ZM91.6552 22.7517C92.4404 21.9443 92.8239 20.8985 92.8239 19.6324C92.8239 18.3663 92.4404 17.3021 91.6735 16.4397C90.9065 15.5774 89.9387 15.1553 88.7883 15.1553C88.2222 15.1553 87.6743 15.2654 87.1813 15.4673C86.6882 15.6691 86.25 15.9627 85.8848 16.348C85.5195 16.7333 85.2274 17.192 85.0082 17.7608C84.7891 18.3296 84.6795 18.9535 84.6795 19.6141C84.6795 20.8801 85.063 21.926 85.8117 22.7333C86.5787 23.5407 87.5648 23.9443 88.77 23.9443C89.9022 23.9443 90.8517 23.5407 91.637 22.7333L91.6552 22.7517Z" fill="#040111"/>
<path d="M14.5444 2.00013C14.5242 2.00004 14.5039 2 14.4837 2C7.12189 2 1.02951 7.56975 0 14.8216H28.9673C28.7283 13.138 28.2164 11.545 27.479 10.0913H17.7026C15.9584 10.0913 14.5444 8.64228 14.5444 6.85479V2.00013Z" fill="#6C53D1"/>
<path d="M28.9491 19.303H0.0181935C0.27165 20.9888 0.798982 22.5819 1.55215 24.0333H11.3862C13.1304 24.0333 14.5444 25.4823 14.5444 27.2698V32C21.8368 31.9696 27.871 26.4741 28.9491 19.303Z" fill="#6C53D1"/>
</svg>
