<svg id="Capa_1" enable-background="new 0 0 93.06 93.06" height="93.06" viewBox="0 0 93.06 93.06" width="93.06" xmlns="http://www.w3.org/2000/svg"><g><g><path d="m11.185.08c-6.181 0-11.184 5.012-11.185 11.179 0 6.173 5.003 11.184 11.186 11.184 6.166 0 11.176-5.011 11.176-11.184 0-6.168-5.011-11.179-11.177-11.179z"/><path d="m1.538 30.926h19.287v62.054h-19.287z"/><path d="m69.925 29.383c-9.382 0-15.673 5.144-18.248 10.022h-.258v-8.479h-18.498-.001v62.053h19.27v-30.698c0-8.093 1.541-15.932 11.575-15.932 9.89 0 10.022 9.256 10.022 16.451v30.178h19.273v-34.036c0-16.707-3.605-29.559-23.135-29.559z"/></g></g><g/><g/><g/><g/><g/><g/><g/><g/><g/><g/><g/><g/><g/><g/><g/></svg>