<svg width="37" height="37" viewBox="0 0 37 37" fill="none" xmlns="http://www.w3.org/2000/svg">
<rect width="37" height="37" fill="black"/>
<g clip-path="url(#clip0_814_4848)">
<path d="M37.4121 0.279297V36.6094H0.154297V0.279297H37.4121ZM25.7275 18.4395C25.316 18.5792 24.963 18.7028 24.6006 18.8242C24.516 18.8518 24.4269 18.8943 24.3887 18.9824C24.3506 19.0706 24.3796 19.1664 24.4209 19.2529V19.2539C25.0793 20.6652 25.3428 22.1335 25.1299 23.6787C24.9961 24.6588 24.6961 25.583 24.1709 26.418C23.035 28.2254 21.3437 29.2758 19.2637 29.7988C18.9419 29.8763 18.6209 29.9215 18.25 29.9902L18.1533 30.0078L18.1689 30.1045L18.3516 31.2227C18.3615 31.2906 18.383 31.3652 18.4424 31.4141C18.4891 31.4524 18.5443 31.4633 18.5986 31.4619L18.6523 31.457C18.9474 31.4114 19.2538 31.3748 19.5557 31.3174H19.5566C21.7632 30.8812 23.5649 29.788 24.9658 28.083C26.0995 26.7029 26.6813 25.1055 26.7812 23.3486C26.8476 22.1764 26.7475 21.0143 26.377 19.8867C26.2224 19.4201 26.0303 18.9614 25.8525 18.498L25.8184 18.4082L25.7275 18.4395ZM21.7793 23.6953C21.7688 23.7055 21.76 23.7141 21.7529 23.7207C21.7464 23.7269 21.7394 23.7334 21.7344 23.7383C21.7269 23.7456 21.709 23.7622 21.6982 23.7881C21.6785 23.8343 21.6628 23.8856 21.6494 23.9248C21.2609 24.9773 20.6175 25.8537 19.708 26.5303C18.4885 27.4345 17.0954 27.9067 15.5693 28.002C14.2892 28.0828 13.0702 27.8226 11.9258 27.2559C10.8537 26.7243 9.96419 25.9772 9.2041 25.0312L9.14355 24.9561L9.06641 25.0137C8.71898 25.274 8.37503 25.5313 8.00195 25.8096L7.91699 25.873L7.98633 25.9541C8.26974 26.2865 8.52508 26.6277 8.82129 26.9238C10.3182 28.4269 12.1248 29.3326 14.2734 29.5742C15.2134 29.6788 16.1418 29.6279 17.0586 29.4404C18.4999 29.1413 19.8002 28.5458 20.9189 27.5957C21.9037 26.758 22.646 25.7457 23.0986 24.5371L23.0996 24.5352C23.1208 24.4751 23.1321 24.4085 23.1123 24.3447C23.0909 24.2761 23.0394 24.2316 22.9805 24.2041C22.6116 24.026 22.2429 23.8476 21.8926 23.6768L21.8291 23.6465L21.7793 23.6953ZM21.7686 12.8262C21.7177 12.8224 21.6625 12.8425 21.626 12.8613C21.6059 12.8717 21.5839 12.8855 21.5654 12.9023C21.5515 12.9151 21.526 12.9437 21.5186 12.9854H21.5166C21.4396 13.3785 21.3773 13.7784 21.3047 14.1855L21.2842 14.2959L21.3965 14.3027C24.1568 14.4637 26.3528 15.5178 27.7393 17.8018L27.8711 18.0264C29.2411 20.4631 29.0629 22.9069 27.5732 25.2871L27.5264 25.3613L27.5947 25.418C27.9342 25.6974 28.3057 25.8873 28.6855 26.0527H28.6865C28.7255 26.0695 28.7644 26.063 28.7832 26.0586C28.8068 26.053 28.8303 26.0434 28.8506 26.0332C28.8867 26.015 28.9345 25.9821 28.9619 25.9404L28.9629 25.9414C29.1512 25.6553 29.3528 25.3642 29.5166 25.0557V25.0547C30.4465 23.2626 30.6319 21.3717 30.1396 19.4404C29.537 17.0788 28.182 15.2186 26.0107 13.9668C25.0578 13.4172 24.0209 13.0956 22.9355 12.9336C22.7411 12.9047 22.5456 12.8853 22.3506 12.8691L21.7686 12.8262ZM7.41797 12.9805C7.40769 12.993 7.39776 13.004 7.38867 13.0146C7.37985 13.025 7.37053 13.0359 7.3623 13.0459C7.34623 13.0654 7.3292 13.087 7.31543 13.1133C7.25493 13.2243 7.18633 13.3448 7.13281 13.4678C6.48605 14.9671 6.241 16.5194 6.4668 18.1406C6.61243 19.1853 6.92822 20.1735 7.44434 21.0918L7.67773 21.4805C8.67909 23.0516 10.0192 24.244 11.793 24.9482C12.6296 25.2804 13.4956 25.4709 14.3936 25.543C15.1301 25.6004 15.8669 25.5968 16.5986 25.4629C16.6442 25.4554 16.6889 25.4314 16.7197 25.4082C16.7365 25.3955 16.7542 25.3796 16.7686 25.3613C16.7804 25.3463 16.8018 25.3147 16.8018 25.2725C16.8054 24.8342 16.7837 24.3893 16.6709 23.9492L16.6494 23.8633L16.5615 23.875C16.2712 23.9118 16.0189 23.9599 15.7588 23.9775C14.9434 24.033 14.1452 23.9646 13.3613 23.7627L13.0264 23.668L12.7646 23.583C10.0938 22.6583 8.26422 20.3661 8.03027 17.6045C7.91846 16.2881 8.14578 15.008 8.72656 13.8047C8.76217 13.7314 8.78638 13.6485 8.75488 13.5693C8.72394 13.4923 8.65192 13.4508 8.58887 13.4229L7.53613 12.9521L7.46582 12.9209L7.41797 12.9805ZM18.915 6.93652C18.1486 6.88236 17.3903 6.93642 16.6406 7.07324C14.6493 7.43526 13.0328 8.38202 11.7803 9.88477L11.5342 10.1934C10.5559 11.4799 10.0448 12.933 9.9375 14.5244C9.86641 15.5833 9.95652 16.6202 10.2783 17.6289L10.4307 18.0596C10.7902 18.9956 11.3168 19.8459 12.0615 20.6191L12.125 20.6846L12.1963 20.627C12.5548 20.338 12.8993 20.06 13.2471 19.7744L13.3232 19.7109L13.2607 19.6338C13.1248 19.4654 13.0086 19.3239 12.8955 19.1816C12.1142 18.1985 11.6788 17.0783 11.5381 15.8506C11.4446 15.0368 11.5195 14.2292 11.75 13.4424C12.3637 11.3336 13.6713 9.80263 15.749 8.93359C16.6095 8.57544 17.5186 8.41699 18.4619 8.41699H19.3203L19.3076 8.30566C19.2602 7.8897 19.2192 7.5022 19.1641 7.11523L19.1631 7.11035C19.1554 7.06945 19.1301 7.0404 19.1143 7.02539C19.0959 7.00804 19.0741 6.99399 19.0537 6.98242C19.0149 6.96048 18.9627 6.93977 18.915 6.93652ZM25.918 9.75781C24.1445 9.03207 22.3052 8.95742 20.4629 9.375C18.0753 9.91571 16.2115 11.1927 14.8584 13.1377L14.5947 13.5361C14.4686 13.7388 14.359 13.9561 14.2334 14.1836L14.1846 14.2725L14.2734 14.3203C14.683 14.5378 15.0708 14.7446 15.4658 14.9551L15.5498 15L15.5996 14.918C15.6507 14.8326 15.6871 14.7715 15.7236 14.7109L15.7246 14.71C16.321 13.6772 17.1084 12.8106 18.1016 12.1309C19.834 10.9458 21.7429 10.4645 23.8408 10.8096C25.614 11.1013 27.0274 11.9968 28.1553 13.3506C28.4387 13.6872 28.6956 14.0427 28.9834 14.417L29.0371 14.4873L29.1133 14.4424C29.3926 14.2761 29.6854 14.1095 29.9619 13.9297H29.9629C30.014 13.8956 30.0598 13.8639 30.0938 13.834C30.1274 13.8043 30.1623 13.7652 30.1748 13.7109C30.1875 13.6552 30.1723 13.6042 30.1523 13.5625C30.1325 13.5214 30.1017 13.4751 30.0664 13.4248C29.831 13.0884 29.5931 12.748 29.3398 12.418L29.0811 12.0918L28.751 11.7168C27.9596 10.8691 27.0169 10.2067 25.918 9.75781Z" stroke="#DEFE94" stroke-width="0.2"/>
<path d="M16.6729 7.2666C17.4119 7.13235 18.1535 7.07904 18.8975 7.13184H18.8984C18.9003 7.13196 18.9074 7.13274 18.9189 7.13672C18.9299 7.1405 18.9415 7.14635 18.9521 7.15234C18.9578 7.15552 18.9623 7.15859 18.9658 7.16113C19.014 7.503 19.0513 7.84504 19.0928 8.21289H18.459C17.4965 8.21289 16.557 8.37552 15.6689 8.74512C13.6667 9.58253 12.3566 11.0231 11.6816 12.9834L11.5547 13.3828C11.3171 14.194 11.2393 15.0314 11.3359 15.8691C11.475 17.0524 11.8786 18.1428 12.5898 19.1104L12.7363 19.3018C12.832 19.4222 12.9309 19.543 13.04 19.6777C12.7426 19.9244 12.4492 20.1643 12.1436 20.4111C11.5407 19.7705 11.0873 19.0786 10.7539 18.3232L10.6143 17.9834C10.1816 16.8724 10.0541 15.7211 10.1338 14.5342C10.2387 12.9754 10.734 11.5601 11.6904 10.3105C12.9446 8.66801 14.598 7.64388 16.6729 7.2666Z" fill="#DEFE94" stroke="#DEFE94" stroke-width="0.2"/>
<path d="M8.50684 13.6055C8.56065 13.6293 8.56815 13.6432 8.56836 13.6436C8.56888 13.6475 8.57011 13.6669 8.5459 13.7168C7.94906 14.9532 7.71522 16.2695 7.83008 17.6211C8.07876 20.5566 10.0799 22.9729 12.9668 23.8584C13.8823 24.1403 14.8162 24.2417 15.7715 24.1768C16.0115 24.1607 16.2524 24.1184 16.4941 24.085C16.5784 24.4651 16.6028 24.8521 16.6006 25.2441L16.5996 25.2461C16.5923 25.2514 16.5835 25.2566 16.5752 25.2607C16.5665 25.265 16.5605 25.2662 16.5586 25.2666C16.0252 25.3634 15.4907 25.3907 14.9512 25.374L14.4082 25.3438C13.5289 25.2767 12.6793 25.0859 11.8662 24.7617C10.1392 24.0746 8.82693 22.9116 7.8457 21.3721C7.20673 20.3722 6.82685 19.28 6.66406 18.1123C6.4438 16.5342 6.68569 15.0154 7.31543 13.5469C7.36426 13.4346 7.42647 13.326 7.49023 13.209L7.49219 13.2061L7.52148 13.165C7.85256 13.3119 8.17764 13.4583 8.50684 13.6055Z" fill="#DEFE94" stroke="#DEFE94" stroke-width="0.2"/>
<path d="M20.5059 9.57129C22.2008 9.18703 23.8864 9.23152 25.5166 9.81934L25.8418 9.94434C27.066 10.4444 28.0918 11.2161 28.9268 12.2207C29.2744 12.6375 29.5865 13.0866 29.9014 13.54C29.9375 13.5925 29.9595 13.6271 29.9717 13.6523C29.9837 13.6771 29.9788 13.6787 29.9805 13.6709C29.9821 13.6635 29.9856 13.6678 29.9639 13.6865C29.9419 13.7054 29.9072 13.7284 29.8535 13.7627L29.8525 13.7637C29.6046 13.9249 29.3475 14.0738 29.0869 14.2266C28.8218 13.8833 28.5734 13.5422 28.3086 13.2236C27.1575 11.8375 25.6991 10.9138 23.873 10.6133C21.7205 10.2592 19.7592 10.7547 17.9873 11.9668C16.9691 12.6637 16.1624 13.5524 15.5518 14.6094C15.528 14.6488 15.5035 14.688 15.4756 14.7344C15.1381 14.5545 14.8043 14.3765 14.4561 14.1914C14.5023 14.1063 14.5462 14.0256 14.5889 13.9473L14.7637 13.6436C16.1032 11.5183 18.0122 10.1361 20.5059 9.57129Z" fill="#DEFE94" stroke="#DEFE94" stroke-width="0.2"/>
<path d="M21.749 13.0176H21.75C22.1401 13.0463 22.5223 13.0677 22.9014 13.124C23.9668 13.2831 24.979 13.5971 25.9062 14.1318C28.0292 15.3557 29.3515 17.1702 29.9414 19.4814C30.3921 21.2494 30.2621 22.975 29.4971 24.626L29.335 24.9551C29.1812 25.2551 28.9857 25.5295 28.793 25.8223C28.7923 25.823 28.7884 25.8263 28.7812 25.832C28.7735 25.8382 28.7644 25.8448 28.7549 25.8496C28.751 25.8516 28.747 25.8524 28.7441 25.8535C28.4072 25.7139 28.0849 25.544 27.7881 25.3125C29.2675 22.9014 29.4388 20.4083 28.0371 17.9209C26.6411 15.441 24.3605 14.2961 21.5146 14.1045C21.5764 13.7396 21.636 13.3868 21.7041 13.0371C21.7069 13.0353 21.7107 13.0335 21.7148 13.0312C21.724 13.0264 21.734 13.0229 21.7422 13.0205C21.746 13.0194 21.7492 13.0188 21.751 13.0186C21.7529 13.0183 21.752 13.0178 21.749 13.0176Z" fill="#DEFE94" stroke="#DEFE94" stroke-width="0.2"/>
<path d="M22.8906 24.3867H22.8916C22.914 24.3976 22.9166 24.4058 22.917 24.4072C22.9184 24.4115 22.9216 24.4287 22.9072 24.4697C22.4711 25.6434 21.7509 26.6252 20.7861 27.4463C19.832 28.2567 18.7414 28.8027 17.5381 29.123L17.0146 29.2471C16.2298 29.4106 15.4342 29.4664 14.6348 29.4092L14.292 29.3779C12.1901 29.1416 10.425 28.2563 8.95898 26.7842C8.69557 26.5174 8.47048 26.2234 8.20312 25.9082C8.51699 25.6715 8.81109 25.4511 9.10645 25.2324C9.86944 26.1635 10.7607 26.9048 11.833 27.4365C13.0112 28.0219 14.262 28.29 15.5791 28.2031L15.5781 28.2021C17.139 28.1012 18.5699 27.6217 19.8232 26.6924C20.7686 25.9919 21.4315 25.0838 21.833 23.9961L21.834 23.9941C21.8408 23.9741 21.8491 23.9532 21.8574 23.9307C21.8625 23.9168 21.8669 23.9021 21.8721 23.8877C22.2057 24.0489 22.5481 24.2164 22.8906 24.3867Z" fill="#DEFE94" stroke="#DEFE94" stroke-width="0.2"/>
<path d="M25.6992 18.6562C25.824 18.9803 25.9503 19.2907 26.0654 19.6035L26.1855 19.9473C26.5464 21.0454 26.6444 22.1842 26.5791 23.334C26.4876 24.9441 25.9837 26.4127 25.0107 27.6982L24.8096 27.9531C23.4341 29.6228 21.6769 30.6945 19.5166 31.1182C19.3695 31.1465 19.2214 31.1698 19.0723 31.1914L18.6201 31.2568C18.584 31.2621 18.5707 31.2582 18.5674 31.2568L18.5479 31.1914C18.5041 30.8571 18.4412 30.5173 18.3838 30.1699C18.7079 30.1119 19.0137 30.0649 19.3105 29.9893C21.4299 29.4564 23.1739 28.3777 24.3389 26.5215C24.8815 25.6551 25.1892 24.7065 25.3262 23.7031C25.5311 22.2155 25.3052 20.7984 24.7217 19.4385L24.6006 19.167L24.5703 19.082C24.5675 19.0656 24.57 19.0594 24.5703 19.0586C24.5713 19.0564 24.5829 19.0375 24.6621 19.0117H24.6631C24.9936 18.8999 25.3282 18.7826 25.6992 18.6562Z" fill="#DEFE94" stroke="#DEFE94" stroke-width="0.2"/>
</g>
<defs>
<clipPath id="clip0_814_4848">
<rect width="27" height="28" fill="white" transform="translate(5 5)"/>
</clipPath>
</defs>
</svg>
