<svg width="75" height="17" viewBox="0 0 75 17" fill="none" xmlns="http://www.w3.org/2000/svg">
<path d="M3.18164 0.708984V13.501H8.98145V11.3408H11.8457V14.2529H9.66113V16.3887H2.50098V14.2529H0.341797V0.708984H3.18164ZM17.3848 4.95703V13.501H23.1846V4.95703H26.0488V14.2529H23.8643V16.3887H16.7041V14.2529H14.5449V4.95703H17.3848ZM35.9072 4.95703V7.11621H37.3877V4.95703H42.4121V7.11621H44.5479V16.3887H41.7314V7.84473H38.0674V16.3887H35.252V7.84473H31.5879V16.3887H28.748V4.95703H35.9072ZM56.3486 4.95703V7.11621H58.5332V13.501H60.6934V16.3887H57.8525V14.2529H56.3486V16.3887H49.1885V14.2529H47.0293V7.11621H49.1885V4.95703H56.3486ZM74.166 4.95703V7.84473H65.502V9.20508H71.9814V11.3408H74.166V14.2529H71.9814V16.3887H62.6621V13.501H71.3018V12.1162H64.8213V9.98047H62.6621V7.11621H64.8213V4.95703H74.166ZM49.8691 13.501H55.6689V7.84473H49.8691V13.501Z" fill="black" stroke="black" stroke-width="0.2"/>
</svg>
