<svg width="87" height="32" viewBox="0 0 87 32" fill="none" xmlns="http://www.w3.org/2000/svg">
<g clip-path="url(#clip0_396_2112)">
<path d="M0.198535 10.4726L3.83087 18.9548C4.20128 19.8203 5.28136 19.9241 5.78236 19.1426L16.8758 1.84922C17.5025 0.872248 16.5502 -0.387816 15.5646 0.113973L1.20263 7.42791C0.158621 7.9594 -0.292312 9.3267 0.198535 10.4726Z" fill="#1F325D"/>
<path d="M18.1012 21.5277L14.4689 13.0454C14.0985 12.1799 13.0184 12.0762 12.5174 12.8576L1.42398 30.151C0.79729 31.128 1.74957 32.3881 2.73512 31.8863L17.0971 24.5723C18.1411 24.0409 18.5921 22.6736 18.1012 21.5277Z" fill="#1F325D"/>
<path d="M81.2843 20.4181C79.5811 20.4181 78.3995 18.8676 78.3995 16.1488C78.3995 13.4304 79.5289 11.9177 81.2322 11.9177C82.9351 11.9177 84.1167 13.4686 84.1167 16.187C84.1167 18.9058 82.9872 20.4181 81.2843 20.4181ZM81.2843 9.25684C78.104 9.25684 75.8969 11.8603 75.8969 16.187C75.8969 20.5137 78.0693 23.0794 81.2493 23.0794C84.4122 23.0794 86.6192 20.4756 86.6192 16.1488C86.6192 11.8221 84.4472 9.25684 81.2843 9.25684ZM72.5779 9.46742H70.145V22.8688H72.5779V9.46742ZM66.93 9.46742H57.5112V12.1094H61.0042V22.8688H63.437V12.1094H66.93V9.46742ZM54.4701 9.46742H52.0719V15.1341C52.0719 15.8808 52.1066 17.5655 52.1066 18.0634C51.9501 17.7186 51.5506 17.0486 51.2551 16.5507L46.9453 9.46742H44.6168V22.8688H47.0147V16.9719C47.0147 16.2256 46.98 14.5409 46.98 14.0429C47.1365 14.3874 47.5363 15.0577 47.8315 15.5552L52.2977 22.8688H54.4701V9.46742ZM40.6196 9.46742H38.1868V22.8688H40.6196V9.46742ZM30.6795 14.6747C28.7504 14.1768 28.2291 13.9091 28.2291 13.0663C28.2291 12.4731 28.6636 11.8603 29.967 11.8603C31.0793 11.8603 31.9482 12.3582 32.73 13.2387L34.4855 11.3627C33.3382 10.0417 31.9482 9.25684 30.0538 9.25684C27.6556 9.25684 25.7094 10.7499 25.7094 13.1813C25.7094 15.8233 27.2733 16.6082 29.515 17.1825C31.8089 17.7572 32.2262 18.1398 32.2262 19.0014C32.2262 20.0162 31.5484 20.4563 30.106 20.4563C28.9415 20.4563 27.8468 20.0162 26.9953 18.9247L25.2402 20.648C26.161 22.141 27.9336 23.0794 29.967 23.0794C33.2863 23.0794 34.7459 21.3561 34.7459 18.8101C34.7459 15.9 32.6085 15.1726 30.6795 14.6747Z" fill="#1F325D"/>
</g>
<defs>
<clipPath id="clip0_396_2112">
<rect width="87" height="32" fill="white"/>
</clipPath>
</defs>
</svg>
