<svg id="Capa_1" enable-background="new 0 0 97.637 97.637" height="97.637" viewBox="0 0 97.637 97.637" width="97.637" xmlns="http://www.w3.org/2000/svg"><g><path d="m97.523 18.526c-.14-.165-.371-.221-.568-.131-2.919 1.295-5.99 2.226-9.153 2.776 3.358-2.526 5.86-6.024 7.143-10.035.062-.192-.002-.402-.159-.527-.158-.125-.377-.141-.55-.038-3.782 2.243-7.878 3.824-12.18 4.701-3.812-3.956-9.135-6.219-14.644-6.219-11.204 0-20.318 9.114-20.318 20.317 0 1.355.131 2.697.391 4-15.518-.958-30.028-8.408-39.894-20.509-.101-.124-.254-.193-.414-.177-.159.012-.301.102-.381.239-1.8 3.088-2.751 6.621-2.751 10.215 0 6.229 2.83 12.053 7.649 15.896-2.481-.298-4.904-1.079-7.089-2.292-.147-.083-.33-.082-.477.003-.147.084-.24.24-.244.41l-.002.26c0 8.946 5.895 16.801 14.282 19.409-2.209.356-4.501.332-6.754-.098-.166-.031-.34.026-.454.154-.113.128-.151.307-.099.469 2.515 7.85 9.503 13.355 17.637 14.041-6.785 4.971-14.805 7.59-23.279 7.59-1.561 0-3.133-.093-4.673-.274-.22-.025-.438.106-.514.317-.076.213.005.451.195.572 9.17 5.881 19.773 8.988 30.664 8.988 35.625 0 56.913-28.938 56.913-56.914 0-.779-.015-1.554-.046-2.327 3.843-2.811 7.142-6.252 9.802-10.235.119-.178.106-.415-.033-.581z"/></g><g/><g/><g/><g/><g/><g/><g/><g/><g/><g/><g/><g/><g/><g/><g/></svg>