<svg width="636" height="385" viewBox="0 0 636 385" fill="none" xmlns="http://www.w3.org/2000/svg">
<g clip-path="url(#clip0_716_4985)">
<rect x="-0.125" y="68.8242" width="339" height="339.001" rx="20" transform="rotate(-9.59242 -0.125 68.8242)" fill="#F5F5F5"/>
<g clip-path="url(#clip1_716_4985)">
<path d="M132.762 121.013L137.418 120.016C139.133 119.649 140.821 120.739 141.188 122.457C141.555 124.171 140.462 125.857 138.747 126.224L134.091 127.221C132.377 127.588 130.689 126.498 130.322 124.783C129.954 123.066 131.048 121.38 132.762 121.013Z" fill="#434343"/>
<path d="M221.446 152.425C221.813 154.14 220.723 155.827 219.008 156.194L209.705 158.186C207.99 158.553 206.303 157.461 205.935 155.746C205.568 154.029 206.661 152.343 208.376 151.976L217.679 149.985C219.393 149.617 221.078 150.708 221.446 152.425Z" fill="#434343"/>
<path d="M171.529 112.715L180.833 110.723C182.547 110.356 184.235 111.446 184.602 113.164C184.969 114.878 183.876 116.564 182.162 116.931L172.859 118.923C171.144 119.29 169.456 118.2 169.089 116.485C168.722 114.768 169.815 113.082 171.529 112.715Z" fill="#434343"/>
<path d="M220.569 206.954C218.969 206.236 218.253 204.361 218.967 202.759C219.683 201.159 221.564 200.437 223.163 201.16C226.455 202.63 229.459 204.827 231.854 207.51C233.023 208.818 232.911 210.826 231.603 211.995C231.176 212.374 230.676 212.617 230.155 212.728C229.075 212.96 227.908 212.62 227.119 211.739C225.315 209.72 223.051 208.064 220.569 206.954Z" fill="#434343"/>
<path d="M199.743 157.074C200.11 158.788 199.017 160.476 197.303 160.843L188 162.835C186.285 163.202 184.599 162.109 184.232 160.394C183.865 158.677 184.955 156.992 186.67 156.625L195.973 154.634C197.688 154.266 199.375 155.357 199.743 157.074Z" fill="#434343"/>
<path d="M212.612 201.875C212.853 203.535 211.758 205.084 210.138 205.431C210.067 205.446 209.998 205.459 209.926 205.472C209.491 205.533 209.054 205.609 208.621 205.702L200.824 207.371C199.109 207.738 197.422 206.648 197.055 204.933C196.687 203.216 197.78 201.53 199.495 201.163L207.292 199.494C207.865 199.371 208.443 199.27 209.014 199.185C210.751 198.934 212.361 200.138 212.612 201.875Z" fill="#434343"/>
<path d="M193.233 108.067L202.536 106.075C204.25 105.708 205.938 106.798 206.305 108.515C206.672 110.23 205.579 111.915 203.865 112.282L194.562 114.274C192.847 114.641 191.16 113.551 190.792 111.836C190.425 110.119 191.518 108.434 193.233 108.067Z" fill="#434343"/>
<path d="M190.86 206.257C191.227 207.972 190.134 209.658 188.419 210.025L179.119 212.016C177.404 212.383 175.717 211.293 175.349 209.578C174.982 207.861 176.075 206.175 177.79 205.808L187.09 203.817C188.805 203.45 190.492 204.54 190.86 206.257Z" fill="#434343"/>
<path d="M178.036 161.718C178.403 163.433 177.31 165.121 175.596 165.488L166.293 167.48C164.58 167.846 162.892 166.754 162.525 165.039C162.158 163.322 163.251 161.636 164.963 161.27L174.266 159.278C175.981 158.911 177.668 160.001 178.036 161.718Z" fill="#434343"/>
<path d="M220.636 249.062C219.085 249.394 217.498 248.52 216.971 246.984C216.405 245.324 217.289 243.52 218.951 242.951C221.553 242.064 223.89 240.657 225.897 238.779C227.173 237.577 229.185 237.646 230.385 238.925C231.582 240.202 231.519 242.212 230.24 243.41C227.571 245.913 224.463 247.78 221.001 248.962C220.881 249.002 220.759 249.036 220.636 249.062Z" fill="#434343"/>
<path d="M159.563 303.808L168.864 301.817C170.579 301.45 172.266 302.54 172.634 304.257C173.001 305.972 171.908 307.658 170.193 308.025L160.892 310.016C159.177 310.383 157.49 309.293 157.123 307.578C156.755 305.861 157.848 304.175 159.563 303.808Z" fill="#434343"/>
<path d="M181.268 299.16L190.571 297.169C192.286 296.802 193.973 297.892 194.341 299.609C194.708 301.324 193.615 303.009 191.9 303.376L182.597 305.368C180.884 305.735 179.197 304.644 178.83 302.93C178.462 301.213 179.555 299.527 181.268 299.16Z" fill="#434343"/>
<path d="M195.206 251.418C194.839 249.704 195.932 248.016 197.647 247.649L206.95 245.657C208.664 245.29 210.352 246.382 210.719 248.097C211.087 249.814 209.994 251.5 208.279 251.867L198.976 253.859C197.261 254.226 195.574 253.135 195.206 251.418Z" fill="#434343"/>
<path d="M224.68 289.867L233.981 287.876C235.696 287.509 237.383 288.599 237.751 290.316C238.118 292.031 237.025 293.716 235.31 294.083L226.009 296.074C224.295 296.442 222.607 295.351 222.24 293.637C221.872 291.92 222.966 290.234 224.68 289.867Z" fill="#434343"/>
<path d="M173.499 256.063C173.132 254.348 174.225 252.66 175.94 252.293L185.243 250.301C186.957 249.934 188.645 251.027 189.012 252.742C189.38 254.459 188.287 256.144 186.572 256.511L177.269 258.503C175.554 258.87 173.867 257.78 173.499 256.063Z" fill="#434343"/>
<path d="M202.971 294.512L212.276 292.52C213.989 292.153 215.676 293.243 216.044 294.96C216.411 296.675 215.318 298.361 213.605 298.727L204.3 300.72C202.585 301.087 200.9 299.996 200.533 298.281C200.165 296.564 201.256 294.879 202.971 294.512Z" fill="#434343"/>
<path d="M151.792 260.711C151.425 258.997 152.518 257.309 154.233 256.942L163.536 254.95C165.25 254.583 166.938 255.675 167.305 257.39C167.673 259.107 166.58 260.793 164.865 261.16L155.562 263.152C153.847 263.519 152.16 262.428 151.792 260.711Z" fill="#434343"/>
<path d="M277.656 93.2179C277.766 91.463 279.274 90.1319 281.023 90.2456C284.661 90.4748 288.15 91.4566 291.391 93.1605C292.943 93.9775 293.538 95.8986 292.72 97.4484C292.264 98.3163 291.465 98.8838 290.574 99.0745C289.873 99.2246 289.119 99.1383 288.433 98.7799C285.99 97.4923 283.362 96.7544 280.626 96.5824C278.875 96.4716 277.547 94.9651 277.656 93.2179Z" fill="#434343"/>
<path d="M169.081 210.731C168.918 212.113 167.884 213.184 166.594 213.46C166.262 213.531 165.912 213.552 165.554 213.51C161.937 213.078 158.508 211.907 155.364 210.019C153.861 209.117 153.374 207.166 154.278 205.662C155.177 204.159 157.133 203.668 158.633 204.576C161 205.996 163.582 206.88 166.304 207.204C168.043 207.411 169.29 208.989 169.081 210.731Z" fill="#434343"/>
<path d="M296.184 106.23C295.306 104.711 295.827 102.772 297.346 101.894C298.873 101.01 300.809 101.539 301.684 103.056C303.02 105.375 303.987 107.891 304.549 110.527L304.766 111.541C304.881 112.076 304.978 112.61 305.057 113.143C305.309 114.813 304.213 116.373 302.586 116.721C302.52 116.735 302.455 116.744 302.388 116.756C300.655 117.016 299.04 115.821 298.78 114.088C298.718 113.683 298.646 113.277 298.559 112.87L298.341 111.851C297.916 109.867 297.191 107.973 296.184 106.23Z" fill="#434343"/>
<path d="M296.843 136.023C296.416 136.409 295.911 136.656 295.385 136.768C294.312 136.998 293.148 136.663 292.36 135.793C291.185 134.49 291.287 132.481 292.591 131.308C294.602 129.49 296.246 127.219 297.344 124.732C298.054 123.131 299.924 122.401 301.53 123.113C303.133 123.82 303.861 125.695 303.152 127.301C301.695 130.595 299.513 133.613 296.843 136.023Z" fill="#434343"/>
<path d="M149.822 117.36L159.126 115.368C160.84 115.001 162.528 116.091 162.895 117.808C163.262 119.523 162.169 121.208 160.455 121.575L151.151 123.567C149.439 123.934 147.752 122.844 147.385 121.129C147.017 119.412 148.11 117.726 149.822 117.36Z" fill="#434343"/>
<path d="M286.567 138.484C286.934 140.199 285.844 141.886 284.129 142.253L274.824 144.245C273.112 144.612 271.424 143.519 271.057 141.805C270.689 140.088 271.782 138.402 273.494 138.035L282.8 136.043C284.514 135.676 286.199 136.767 286.567 138.484Z" fill="#434343"/>
<path d="M116.149 313.101L125.452 311.11C127.167 310.742 128.852 311.833 129.219 313.55C129.587 315.265 128.496 316.95 126.781 317.317L117.478 319.309C115.763 319.676 114.076 318.586 113.709 316.871C113.341 315.154 114.434 313.468 116.149 313.101Z" fill="#434343"/>
<path d="M264.86 143.132C265.227 144.847 264.135 146.535 262.42 146.902L253.119 148.893C251.404 149.26 249.717 148.168 249.349 146.453C248.982 144.736 250.075 143.05 251.79 142.683L261.09 140.692C262.805 140.325 264.492 141.415 264.86 143.132Z" fill="#434343"/>
<path d="M156.587 167.355C157.695 168.713 157.492 170.713 156.131 171.822C154.031 173.533 152.274 175.719 151.056 178.15C150.606 179.044 149.791 179.634 148.882 179.829C148.199 179.975 147.464 179.897 146.793 179.563C145.228 178.776 144.596 176.865 145.383 175.3C147.021 172.031 149.289 169.205 152.119 166.897C153.483 165.791 155.481 165.997 156.587 167.355Z" fill="#434343"/>
<path d="M259.681 100.332C257.966 100.699 256.279 99.6092 255.912 97.8945C255.544 96.1774 256.637 94.4919 258.352 94.1247L267.655 92.133C269.37 91.7659 271.055 92.8566 271.423 94.5737C271.79 96.2884 270.699 97.9734 268.984 98.3406L259.681 100.332Z" fill="#434343"/>
<path d="M108.381 270.004C108.014 268.289 109.106 266.601 110.821 266.234L120.122 264.243C121.836 263.876 123.524 264.968 123.891 266.683C124.259 268.4 123.166 270.086 121.451 270.453L112.15 272.444C110.436 272.811 108.748 271.721 108.381 270.004Z" fill="#434343"/>
<path d="M130.088 265.359C129.721 263.645 130.813 261.957 132.526 261.59L141.829 259.598C143.543 259.231 145.231 260.324 145.598 262.039C145.966 263.756 144.873 265.441 143.158 265.808L133.855 267.8C132.143 268.167 130.455 267.076 130.088 265.359Z" fill="#434343"/>
<path d="M88.4233 288.014C90.1743 288.117 91.5101 289.624 91.4041 291.373C91.3012 293.114 91.4352 294.874 91.8044 296.598L92.1973 298.434C92.2891 298.863 92.3917 299.284 92.5104 299.699C92.9949 301.384 92.0187 303.141 90.3341 303.626C90.2612 303.644 90.193 303.661 90.1219 303.676C88.5019 304.023 86.8695 303.062 86.4068 301.445C86.2487 300.891 86.1091 300.332 85.9874 299.763L85.5939 297.925C85.107 295.639 84.9291 293.305 85.0684 290.994C85.1697 289.245 86.6752 287.913 88.4233 288.014Z" fill="#434343"/>
<path d="M137.856 308.453L147.159 306.461C148.871 306.095 150.559 307.185 150.926 308.902C151.294 310.617 150.2 312.302 148.488 312.669L139.185 314.66C137.47 315.028 135.783 313.937 135.416 312.223C135.048 310.505 136.141 308.82 137.856 308.453Z" fill="#434343"/>
<path d="M231.765 221.433C231.474 219.702 232.695 218.036 234.369 217.777C236.097 217.486 237.736 218.649 238.027 220.38C238.635 223.992 238.474 227.616 237.545 231.144C237.23 232.343 236.271 233.2 235.137 233.443C234.668 233.543 234.164 233.539 233.668 233.408C231.972 232.961 230.959 231.226 231.404 229.531C232.102 226.88 232.224 224.154 231.765 221.433Z" fill="#434343"/>
<path d="M151.316 196.711C152.102 198.277 151.47 200.183 149.902 200.972C149.656 201.096 149.401 201.186 149.143 201.241C147.762 201.537 146.304 200.88 145.642 199.561C144.658 197.604 143.925 195.519 143.463 193.364L143.216 192.211C143.013 191.251 142.864 190.29 142.769 189.334C142.595 187.585 143.873 186.036 145.615 185.861C147.359 185.691 148.915 186.966 149.088 188.709C149.159 189.437 149.273 190.163 149.428 190.888L149.673 192.034C150.022 193.662 150.573 195.233 151.316 196.711Z" fill="#434343"/>
<path d="M98.2181 308.809C100.243 310.62 102.681 312.01 105.262 312.832C106.934 313.366 107.856 315.15 107.324 316.819C106.966 317.946 106.039 318.732 104.962 318.962C104.441 319.074 103.882 319.057 103.337 318.882C99.9081 317.79 96.677 315.946 93.9857 313.545C92.6802 312.375 92.568 310.371 93.7341 309.061C94.9008 307.753 96.9101 307.64 98.2181 308.809Z" fill="#434343"/>
<path d="M93.1018 282.495C92.2563 282.676 91.3397 282.513 90.5841 281.969C89.1589 280.947 88.8352 278.96 89.8582 277.537C91.9975 274.56 94.6819 272.128 97.8347 270.298C99.3564 269.423 101.295 269.941 102.174 271.453C103.051 272.971 102.536 274.915 101.018 275.794C98.644 277.167 96.6265 279.001 95.0141 281.246C94.5343 281.909 93.8455 282.336 93.1018 282.495Z" fill="#434343"/>
<path d="M230.083 147.328L239.386 145.336C241.098 144.97 242.785 146.06 243.153 147.777C243.52 149.492 242.428 151.179 240.715 151.546L231.412 153.538C229.697 153.905 228.01 152.812 227.642 151.098C227.275 149.38 228.368 147.695 230.083 147.328Z" fill="#434343"/>
<path d="M237.976 104.981C236.261 105.348 234.574 104.258 234.206 102.543C233.839 100.826 234.932 99.1408 236.647 98.7737L245.95 96.7819C247.664 96.4148 249.352 97.5051 249.719 99.2221C250.087 100.937 248.993 102.622 247.279 102.989L237.976 104.981Z" fill="#434343"/>
<path d="M216.269 109.626C214.554 109.993 212.867 108.903 212.499 107.188C212.132 105.471 213.225 103.785 214.94 103.418L224.243 101.426C225.957 101.059 227.645 102.15 228.012 103.867C228.38 105.581 227.286 107.267 225.572 107.634L216.269 109.626Z" fill="#434343"/>
<path d="M246.897 285.11L251.554 284.113C253.266 283.747 254.953 284.837 255.321 286.554C255.688 288.269 254.595 289.954 252.883 290.321L248.226 291.318C246.512 291.685 244.824 290.595 244.457 288.88C244.09 287.163 245.183 285.477 246.897 285.11Z" fill="#434343"/>
<g clip-path="url(#clip2_716_4985)">
<path d="M104.295 121.458C103.029 121.488 101.77 121.652 100.541 121.939L100.882 136.347C102.104 136.015 103.366 135.828 104.634 135.798L114.631 135.561L114.291 121.221L104.295 121.458Z" fill="#F9F9F9"/>
<path d="M104.295 121.458C103.029 121.488 101.77 121.652 100.541 121.939L100.882 136.347C102.104 136.015 103.366 135.828 104.634 135.798L114.631 135.561L114.291 121.221L104.295 121.458Z" fill="#ECEAE7"/>
<path d="M95.6619 123.839C93.7825 124.902 91.6895 125.566 89.5448 125.79L89.8847 140.138C92.4707 139.899 94.9986 139.112 97.2618 137.831C98.9317 136.887 100.77 136.257 102.664 135.97L102.324 121.613C99.988 121.922 97.7159 122.677 95.6619 123.839Z" fill="#454040"/>
<path d="M96.2913 123.503L96.6387 138.169C96.8494 138.06 97.0587 137.949 97.265 137.832C98.9349 136.888 100.773 136.257 102.667 135.971L102.327 121.614C100.226 121.892 98.177 122.532 96.2913 123.503Z" fill="#2E2E2E"/>
<path d="M88.2923 125.874L79.6399 126.079L79.9796 140.419L88.632 140.214C89.6537 140.19 90.6711 140.078 91.6726 139.885L91.3318 125.5C90.3345 125.722 89.3159 125.849 88.2923 125.874Z" fill="#F9F9F9"/>
<path d="M104.017 109.805C102.752 109.835 101.493 109.999 100.263 110.287L100.583 123.798C101.805 123.466 103.067 123.28 104.336 123.25L114.333 123.013L114.014 109.569L104.017 109.805Z" fill="#454040"/>
<path d="M104.017 109.805C102.752 109.835 101.493 109.999 100.263 110.287L100.583 123.798C101.805 123.466 103.067 123.28 104.336 123.25L114.333 123.013L114.014 109.569L104.017 109.805Z" fill="#2E2E2E"/>
<path d="M95.3884 112.186C93.5091 113.249 91.416 113.913 89.2714 114.138L89.59 127.59C92.176 127.35 94.7039 126.563 96.9672 125.283C98.6371 124.338 100.476 123.708 102.369 123.422L102.05 109.961C99.7146 110.27 97.4424 111.025 95.3884 112.186Z" fill="#F9F9F9"/>
<path d="M96.014 111.85L96.3401 125.62C96.5508 125.512 96.7601 125.4 96.9664 125.284C98.6363 124.339 100.475 123.709 102.368 123.422L102.049 109.962C99.9486 110.24 97.8996 110.879 96.014 111.85Z" fill="#ECEAE7"/>
<path d="M88.0188 114.221L79.3665 114.426L79.685 127.871L88.3373 127.666C89.359 127.642 90.3764 127.529 91.3779 127.336L91.0584 113.848C90.0611 114.07 89.0424 114.197 88.0188 114.221Z" fill="#454040"/>
<path d="M77.9688 112.215L80.6575 112.151L81.7019 156.246L79.0132 156.31L77.9688 112.215Z" fill="#FFD845"/>
</g>
</g>
<path d="M279.549 264.61C275.623 264.707 271.897 266.358 269.186 269.2C266.476 272.041 265.004 275.842 265.093 279.767C265.278 287.563 276.071 299.127 280.364 299.025C284.657 298.924 294.891 286.861 294.706 279.066C294.609 275.14 292.958 271.414 290.117 268.704C287.275 265.994 283.474 264.521 279.549 264.61Z" fill="#EA4242"/>
<path d="M280.061 286.218C284.26 286.119 287.584 282.634 287.484 278.435C287.385 274.235 283.9 270.912 279.701 271.011C275.502 271.111 272.178 274.596 272.278 278.795C272.377 282.994 275.862 286.317 280.061 286.218Z" fill="white"/>
<g filter="url(#filter0_d_716_4985)">
<rect x="359.59" y="108.051" width="277.025" height="277.026" rx="20" transform="rotate(3.00768 359.59 108.051)" fill="#DEFE94"/>
</g>
<g clip-path="url(#clip3_716_4985)">
<path d="M501.175 237.885C500.535 213.233 492.851 191.608 492.525 190.699C491.81 188.713 490.15 187.213 488.1 186.706C486.05 186.198 483.882 186.748 482.323 188.172C468.275 200.999 455.774 208.135 442.982 210.631C430.194 213.127 416.4 211.151 399.572 204.408C397.584 203.612 395.328 203.878 393.579 205.113C391.83 206.348 390.827 208.385 390.913 210.525C390.952 211.49 391.962 234.417 400.636 257.501C412.685 289.567 433.592 306.103 461.098 305.321C461.444 305.312 461.788 305.273 462.127 305.208C462.466 305.142 462.801 305.048 463.125 304.927C488.907 295.311 502.064 272.128 501.175 237.885ZM407.718 236.568C407.712 231.416 414.549 227.232 422.989 227.222C431.429 227.211 438.276 231.379 438.283 236.53C438.289 241.682 431.449 242.981 423.009 242.99C414.568 243.001 407.724 241.72 407.718 236.568ZM458.15 284.824C442.336 287.91 428.097 283.143 426.348 274.179C426.224 273.539 426.173 272.895 426.179 272.25C433.52 276.007 444.518 277.239 456.224 274.955C467.93 272.671 477.659 267.394 483.049 261.154C483.298 261.75 483.493 262.365 483.618 263.005C485.367 271.969 473.965 281.739 458.15 284.824ZM474.988 232.849C467.163 236.012 460.336 237.38 458.406 232.604C456.475 227.827 461.254 221.392 469.078 218.228C476.903 215.065 484.811 216.372 486.742 221.148C488.673 225.925 482.813 229.686 474.988 232.849Z" fill="black"/>
<path d="M597.295 251.583C596.206 249.773 594.282 248.63 592.174 248.533C573.171 247.664 559.286 243.868 548.478 236.585C537.673 229.305 529.319 218.151 522.191 201.483C521.349 199.513 519.567 198.106 517.456 197.742C515.347 197.379 513.196 198.108 511.743 199.682C511.438 200.013 507.891 203.884 503.159 210.203C504.331 215.871 505.406 222.362 506.06 229.275C509.966 226.628 517.069 228.641 522.61 234.172C528.584 240.133 530.477 247.923 526.838 251.568C523.199 255.214 517.444 251.295 511.47 245.332C509.626 243.493 507.979 241.673 506.686 239.93C506.987 254.059 505.054 266.633 500.929 277.461C506.064 278.491 511.683 280.838 517.043 284.449C530.405 293.453 537.099 306.892 531.995 314.467C531.631 315.008 531.212 315.498 530.752 315.951C528.219 308.103 521.315 299.454 511.424 292.788C506.728 289.625 501.872 287.262 497.185 285.707C496.915 286.211 496.641 286.712 496.361 287.207C492.927 293.257 488.699 298.539 483.712 303.033C486.451 307.802 489.984 312.246 494.31 316.336C494.562 316.574 494.833 316.79 495.119 316.984C495.406 317.177 495.708 317.346 496.024 317.491C521.051 328.928 546.749 321.846 570.34 297.009C587.323 279.129 597.187 258.407 597.6 257.534C598.499 255.626 598.385 253.391 597.295 251.583ZM571.974 274.97C569.961 279.712 563.159 278.226 555.389 274.927C547.621 271.63 541.827 267.769 543.84 263.026C545.854 258.284 553.784 257.114 561.551 260.412C569.321 263.711 573.986 270.229 571.974 274.97Z" fill="black"/>
</g>
</g>
<defs>
<filter id="filter0_d_716_4985" x="338.074" y="109.07" width="297.137" height="297.141" filterUnits="userSpaceOnUse" color-interpolation-filters="sRGB">
<feFlood flood-opacity="0" result="BackgroundImageFix"/>
<feColorMatrix in="SourceAlpha" type="matrix" values="0 0 0 0 0 0 0 0 0 0 0 0 0 0 0 0 0 0 127 0" result="hardAlpha"/>
<feOffset dx="-4" dy="4"/>
<feGaussianBlur stdDeviation="2"/>
<feComposite in2="hardAlpha" operator="out"/>
<feColorMatrix type="matrix" values="0 0 0 0 0.384615 0 0 0 0 0.384615 0 0 0 0 0.384615 0 0 0 0.25 0"/>
<feBlend mode="normal" in2="BackgroundImageFix" result="effect1_dropShadow_716_4985"/>
<feBlend mode="normal" in="SourceGraphic" in2="effect1_dropShadow_716_4985" result="shape"/>
</filter>
<clipPath id="clip0_716_4985">
<rect width="636" height="385" fill="white"/>
</clipPath>
<clipPath id="clip1_716_4985">
<rect width="253.972" height="253.972" fill="white" transform="matrix(-0.977841 0.209351 0.209351 0.977841 292.465 54.0898)"/>
</clipPath>
<clipPath id="clip2_716_4985">
<rect width="45.8997" height="45.8997" fill="white" transform="translate(73.0273 110.539) rotate(-1.35687)"/>
</clipPath>
<clipPath id="clip3_716_4985">
<rect width="210" height="210" fill="white" transform="translate(395.848 141.703) rotate(4.13458)"/>
</clipPath>
</defs>
</svg>
