<svg width="596" height="107" viewBox="0 0 596 107" fill="none" xmlns="http://www.w3.org/2000/svg">
<g clip-path="url(#clip0_312_21908)">
<path d="M120.342 64.0136V36.584H127.487V64.4763C127.487 71.9663 132.75 76.5499 139.328 76.5499C145.718 76.5499 150.989 71.9663 150.989 64.4763V36.584H158.227V64.0136C158.227 75.7113 149.863 83.2013 139.336 83.2013C128.612 83.2013 120.342 75.7113 120.342 64.0136Z" fill="black"/>
<path d="M169.22 74.306L173.823 69.5344C177.584 73.4674 181.439 76.5545 186.986 76.5545C191.778 76.5545 195.728 74.2121 195.728 70.0983C195.728 66.1654 192.345 64.6688 187.734 62.7963L183.313 60.9238C176.357 58.0247 171.935 54.7424 171.935 48.2862C171.935 40.0516 178.985 35.5547 187.349 35.5547C193.927 35.5547 199.097 38.3598 202.669 42.7627L198.247 47.2524C195.242 44.1653 191.292 42.1988 186.965 42.1988C182.637 42.1988 179.348 44.1653 179.348 47.9103C179.348 50.9974 181.701 52.4072 186.776 54.5544L191.009 56.3329C199.184 59.796 203.134 63.353 203.134 69.8091C203.134 78.7017 195.517 83.1914 187.059 83.1914C179 83.1986 172.887 79.1789 169.22 74.306Z" fill="black"/>
<path d="M256.65 61.5759H220.456C221.393 70.6564 228.261 76.5559 237.286 76.5559C243.022 76.5559 247.531 74.1194 251.292 70.3744L255.524 75.24C250.921 80.1057 244.714 83.2 237.192 83.2C223.375 83.2 212.942 72.8109 212.942 59.4214C212.942 46.1259 223.186 35.5488 236.35 35.5488C248.097 35.5488 257.216 43.9715 257.216 56.1391C257.209 58.5827 256.831 60.6432 256.65 61.5759ZM220.74 55.2137H249.789C249.694 46.7911 243.399 42.1062 236.161 42.1062C228.443 42.1062 222.337 47.3477 220.74 55.2137Z" fill="black"/>
<path d="M264.732 69.6285L273.474 63.0784C276.857 67.756 281.279 72.0649 288.699 72.0649C294.152 72.0649 297.535 69.5345 297.535 65.2328C297.535 61.2059 294.529 59.8033 289.636 57.5549L282.963 54.5617C274.41 50.7228 267.92 45.6692 267.92 36.7766C267.92 26.1055 276.85 19.2734 288.503 19.2734C298.377 19.2734 305.333 24.233 308.999 30.9711L300.352 37.6153C297.346 33.1256 293.585 30.5012 288.51 30.5012C284.372 30.5012 280.8 32.3737 280.8 36.4947C280.8 40.0517 283.53 41.5482 288.038 43.6087L295.088 46.6958C304.868 51.0047 310.408 55.9643 310.408 64.7629C310.408 76.2799 301.006 83.2999 288.692 83.2999C277.99 83.2927 269.335 77.8632 264.732 69.6285Z" fill="black"/>
<path d="M357.701 74.1225H332.318L328.84 82.1764H315.212L342.947 19.2705H347.18L374.821 82.1764H361.193L357.701 74.1225ZM345.009 42.8611L336.74 63.7333H353.286L345.009 42.8611Z" fill="black"/>
<path d="M419.836 74.1225H394.46L390.982 82.1764H377.355L405.09 19.2705H409.322L436.963 82.1764H423.335L419.836 74.1225ZM407.144 42.8611L398.875 63.7333H415.421L407.144 42.8611Z" fill="black"/>
<path d="M440.617 69.6285L449.359 63.0784C452.742 67.756 457.164 72.0649 464.591 72.0649C470.044 72.0649 473.427 69.5345 473.427 65.2328C473.427 61.2059 470.421 59.8033 465.528 57.5549L458.855 54.5617C450.303 50.7228 443.812 45.6692 443.812 36.7766C443.812 26.1055 452.742 19.2734 464.403 19.2734C474.277 19.2734 481.232 24.233 484.899 30.9711L476.252 37.6153C473.246 33.1256 469.485 30.5012 464.41 30.5012C460.271 30.5012 456.699 32.3737 456.699 36.4947C456.699 40.0517 459.429 41.5482 463.938 43.6087L470.988 46.6958C480.768 51.0047 486.315 55.9643 486.315 64.7629C486.315 76.2799 476.912 83.2999 464.599 83.2999C453.868 83.2927 445.22 77.8632 440.617 69.6285Z" fill="black"/>
<path d="M498.33 11.9658H505.569V82.1737H498.33V11.9658ZM536.687 82.1737H527.379L506.324 56.5226L525.404 36.583H534.901L515.065 56.6166L536.687 82.1737Z" fill="black"/>
<path d="M544.116 19.1732C544.116 16.2741 546.563 13.9316 549.568 13.9316C552.48 13.9316 554.927 16.2741 554.927 19.1732C554.927 22.1663 552.48 24.4147 549.568 24.4147C546.555 24.4147 544.116 22.1663 544.116 19.1732ZM545.902 36.5824H553.141V82.1658H545.902V36.5824Z" fill="black"/>
<path d="M594.029 76.0847V82.1721C591.676 82.736 589.331 83.1987 586.413 83.1987C577.388 83.1987 570.999 78.7958 570.999 68.4067V43.0448H563.288V36.5814H570.999V24.1318H578.237V36.5814H592.526V43.0376H578.237V67.9368C578.237 74.7689 582.187 76.6414 587.923 76.6414C589.702 76.6486 591.676 76.4606 594.029 76.0847Z" fill="black"/>
<path d="M97.7761 69.391L73.3954 75.464L56.1373 57.9463L38.8428 40.3853L31.7421 64.482L24.9536 87.5376L0.572876 93.6106L7.36142 70.555L14.346 46.827L21.4467 22.7231L28.4386 -1.00488L45.8274 16.6501L63.1219 34.2039L80.518 51.8589L97.7761 69.391Z" fill="#FD536E"/>
<path d="M49.0443 82.0395L42.0452 105.775L24.7508 88.2137L24.9541 87.5341L31.7426 64.4785L48.6377 81.6347L49.0443 82.0395Z" fill="#FFC001"/>
<path d="M73.6786 75.9048L66.6867 99.64L49.385 82.079L49.5883 81.3994L56.3841 58.3438L73.272 75.4927L73.6786 75.9048Z" fill="#FFC001"/>
</g>
<defs>
<clipPath id="clip0_312_21908">
<rect width="595.188" height="107" fill="white"/>
</clipPath>
</defs>
</svg>
